<?xml version="1.0" ?>
<svg xmlns="http://www.w3.org/2000/svg" width="604.7" height="340.2" viewBox="0 0 604.7 340.2">
  <style>
    .title { font-family: Helvetica, Arial, sans-serif; font-size: 12pt; font-weight: bold; text-anchor: middle; }
    .axis-label { font-family: Helvetica, Arial, sans-serif; font-size: 10pt; text-anchor: middle; fill: #333; }
    .tick-label { font-family: Helvetica, Arial, sans-serif; font-size: 8pt; text-anchor: middle; fill: #666; }
    .tree-title { font-family: Helvetica, Arial, sans-serif; font-size: 8pt; text-anchor: middle; fill: #333; font-weight: bold; }
    .node-text { font-family: Helvetica, Arial, sans-serif; font-size: 6pt; text-anchor: middle; fill: #333; }
    </style>
  <text x="302.3622047244094" y="25" class="title">Concept-Complexity Spectrum</text>
  <line x1="40" y1="300.15748031496065" x2="402.8346456692913" y2="300.15748031496065" stroke="#666666" stroke-width="1"/>
  <line x1="40" y1="50" x2="40" y2="300.15748031496065" stroke="#666666" stroke-width="1"/>
  <line x1="40.0" y1="300.15748031496065" x2="40.0" y2="303.15748031496065" stroke="#666666" stroke-width="1"/>
  <text x="40.0" y="315.15748031496065" class="tick-label">0</text>
  <line x1="47.48112671483075" y1="300.15748031496065" x2="47.48112671483075" y2="303.15748031496065" stroke="#666666" stroke-width="1"/>
  <text x="47.48112671483075" y="315.15748031496065" class="tick-label">2</text>
  <line x1="54.9622534296615" y1="300.15748031496065" x2="54.9622534296615" y2="303.15748031496065" stroke="#666666" stroke-width="1"/>
  <text x="54.9622534296615" y="315.15748031496065" class="tick-label">4</text>
  <line x1="62.443380144492245" y1="300.15748031496065" x2="62.443380144492245" y2="303.15748031496065" stroke="#666666" stroke-width="1"/>
  <text x="62.443380144492245" y="315.15748031496065" class="tick-label">6</text>
  <line x1="69.924506859323" y1="300.15748031496065" x2="69.924506859323" y2="303.15748031496065" stroke="#666666" stroke-width="1"/>
  <text x="69.924506859323" y="315.15748031496065" class="tick-label">8</text>
  <line x1="77.40563357415374" y1="300.15748031496065" x2="77.40563357415374" y2="303.15748031496065" stroke="#666666" stroke-width="1"/>
  <text x="77.40563357415374" y="315.15748031496065" class="tick-label">10</text>
  <line x1="84.88676028898449" y1="300.15748031496065" x2="84.88676028898449" y2="303.15748031496065" stroke="#666666" stroke-width="1"/>
  <text x="84.88676028898449" y="315.15748031496065" class="tick-label">12</text>
  <line x1="92.36788700381524" y1="300.15748031496065" x2="92.36788700381524" y2="303.15748031496065" stroke="#666666" stroke-width="1"/>
  <text x="92.36788700381524" y="315.15748031496065" class="tick-label">14</text>
  <line x1="99.84901371864599" y1="300.15748031496065" x2="99.84901371864599" y2="303.15748031496065" stroke="#666666" stroke-width="1"/>
  <text x="99.84901371864599" y="315.15748031496065" class="tick-label">16</text>
  <line x1="107.33014043347674" y1="300.15748031496065" x2="107.33014043347674" y2="303.15748031496065" stroke="#666666" stroke-width="1"/>
  <text x="107.33014043347674" y="315.15748031496065" class="tick-label">18</text>
  <line x1="114.8112671483075" y1="300.15748031496065" x2="114.8112671483075" y2="303.15748031496065" stroke="#666666" stroke-width="1"/>
  <text x="114.8112671483075" y="315.15748031496065" class="tick-label">20</text>
  <line x1="122.29239386313824" y1="300.15748031496065" x2="122.29239386313824" y2="303.15748031496065" stroke="#666666" stroke-width="1"/>
  <text x="122.29239386313824" y="315.15748031496065" class="tick-label">22</text>
  <line x1="129.77352057796898" y1="300.15748031496065" x2="129.77352057796898" y2="303.15748031496065" stroke="#666666" stroke-width="1"/>
  <text x="129.77352057796898" y="315.15748031496065" class="tick-label">24</text>
  <line x1="137.25464729279975" y1="300.15748031496065" x2="137.25464729279975" y2="303.15748031496065" stroke="#666666" stroke-width="1"/>
  <text x="137.25464729279975" y="315.15748031496065" class="tick-label">26</text>
  <line x1="144.73577400763048" y1="300.15748031496065" x2="144.73577400763048" y2="303.15748031496065" stroke="#666666" stroke-width="1"/>
  <text x="144.73577400763048" y="315.15748031496065" class="tick-label">28</text>
  <line x1="152.21690072246122" y1="300.15748031496065" x2="152.21690072246122" y2="303.15748031496065" stroke="#666666" stroke-width="1"/>
  <text x="152.21690072246122" y="315.15748031496065" class="tick-label">30</text>
  <line x1="159.69802743729198" y1="300.15748031496065" x2="159.69802743729198" y2="303.15748031496065" stroke="#666666" stroke-width="1"/>
  <text x="159.69802743729198" y="315.15748031496065" class="tick-label">32</text>
  <line x1="167.17915415212275" y1="300.15748031496065" x2="167.17915415212275" y2="303.15748031496065" stroke="#666666" stroke-width="1"/>
  <text x="167.17915415212275" y="315.15748031496065" class="tick-label">34</text>
  <line x1="174.66028086695349" y1="300.15748031496065" x2="174.66028086695349" y2="303.15748031496065" stroke="#666666" stroke-width="1"/>
  <text x="174.66028086695349" y="315.15748031496065" class="tick-label">36</text>
  <line x1="182.14140758178422" y1="300.15748031496065" x2="182.14140758178422" y2="303.15748031496065" stroke="#666666" stroke-width="1"/>
  <text x="182.14140758178422" y="315.15748031496065" class="tick-label">38</text>
  <line x1="189.622534296615" y1="300.15748031496065" x2="189.622534296615" y2="303.15748031496065" stroke="#666666" stroke-width="1"/>
  <text x="189.622534296615" y="315.15748031496065" class="tick-label">40</text>
  <line x1="197.10366101144572" y1="300.15748031496065" x2="197.10366101144572" y2="303.15748031496065" stroke="#666666" stroke-width="1"/>
  <text x="197.10366101144572" y="315.15748031496065" class="tick-label">42</text>
  <line x1="204.5847877262765" y1="300.15748031496065" x2="204.5847877262765" y2="303.15748031496065" stroke="#666666" stroke-width="1"/>
  <text x="204.5847877262765" y="315.15748031496065" class="tick-label">44</text>
  <line x1="212.06591444110722" y1="300.15748031496065" x2="212.06591444110722" y2="303.15748031496065" stroke="#666666" stroke-width="1"/>
  <text x="212.06591444110722" y="315.15748031496065" class="tick-label">46</text>
  <line x1="219.54704115593796" y1="300.15748031496065" x2="219.54704115593796" y2="303.15748031496065" stroke="#666666" stroke-width="1"/>
  <text x="219.54704115593796" y="315.15748031496065" class="tick-label">48</text>
  <line x1="227.02816787076873" y1="300.15748031496065" x2="227.02816787076873" y2="303.15748031496065" stroke="#666666" stroke-width="1"/>
  <text x="227.02816787076873" y="315.15748031496065" class="tick-label">50</text>
  <line x1="234.50929458559946" y1="300.15748031496065" x2="234.50929458559946" y2="303.15748031496065" stroke="#666666" stroke-width="1"/>
  <text x="234.50929458559946" y="315.15748031496065" class="tick-label">52</text>
  <line x1="241.99042130043023" y1="300.15748031496065" x2="241.99042130043023" y2="303.15748031496065" stroke="#666666" stroke-width="1"/>
  <text x="241.99042130043023" y="315.15748031496065" class="tick-label">54</text>
  <line x1="249.47154801526096" y1="300.15748031496065" x2="249.47154801526096" y2="303.15748031496065" stroke="#666666" stroke-width="1"/>
  <text x="249.47154801526096" y="315.15748031496065" class="tick-label">56</text>
  <line x1="256.95267473009176" y1="300.15748031496065" x2="256.95267473009176" y2="303.15748031496065" stroke="#666666" stroke-width="1"/>
  <text x="256.95267473009176" y="315.15748031496065" class="tick-label">58</text>
  <line x1="264.43380144492244" y1="300.15748031496065" x2="264.43380144492244" y2="303.15748031496065" stroke="#666666" stroke-width="1"/>
  <text x="264.43380144492244" y="315.15748031496065" class="tick-label">60</text>
  <line x1="271.91492815975323" y1="300.15748031496065" x2="271.91492815975323" y2="303.15748031496065" stroke="#666666" stroke-width="1"/>
  <text x="271.91492815975323" y="315.15748031496065" class="tick-label">62</text>
  <line x1="279.39605487458397" y1="300.15748031496065" x2="279.39605487458397" y2="303.15748031496065" stroke="#666666" stroke-width="1"/>
  <text x="279.39605487458397" y="315.15748031496065" class="tick-label">64</text>
  <line x1="286.8771815894147" y1="300.15748031496065" x2="286.8771815894147" y2="303.15748031496065" stroke="#666666" stroke-width="1"/>
  <text x="286.8771815894147" y="315.15748031496065" class="tick-label">66</text>
  <line x1="294.3583083042455" y1="300.15748031496065" x2="294.3583083042455" y2="303.15748031496065" stroke="#666666" stroke-width="1"/>
  <text x="294.3583083042455" y="315.15748031496065" class="tick-label">68</text>
  <line x1="301.83943501907623" y1="300.15748031496065" x2="301.83943501907623" y2="303.15748031496065" stroke="#666666" stroke-width="1"/>
  <text x="301.83943501907623" y="315.15748031496065" class="tick-label">70</text>
  <line x1="309.32056173390697" y1="300.15748031496065" x2="309.32056173390697" y2="303.15748031496065" stroke="#666666" stroke-width="1"/>
  <text x="309.32056173390697" y="315.15748031496065" class="tick-label">72</text>
  <line x1="316.8016884487377" y1="300.15748031496065" x2="316.8016884487377" y2="303.15748031496065" stroke="#666666" stroke-width="1"/>
  <text x="316.8016884487377" y="315.15748031496065" class="tick-label">74</text>
  <line x1="324.28281516356844" y1="300.15748031496065" x2="324.28281516356844" y2="303.15748031496065" stroke="#666666" stroke-width="1"/>
  <text x="324.28281516356844" y="315.15748031496065" class="tick-label">76</text>
  <line x1="331.76394187839924" y1="300.15748031496065" x2="331.76394187839924" y2="303.15748031496065" stroke="#666666" stroke-width="1"/>
  <text x="331.76394187839924" y="315.15748031496065" class="tick-label">78</text>
  <line x1="339.24506859323" y1="300.15748031496065" x2="339.24506859323" y2="303.15748031496065" stroke="#666666" stroke-width="1"/>
  <text x="339.24506859323" y="315.15748031496065" class="tick-label">80</text>
  <line x1="346.7261953080607" y1="300.15748031496065" x2="346.7261953080607" y2="303.15748031496065" stroke="#666666" stroke-width="1"/>
  <text x="346.7261953080607" y="315.15748031496065" class="tick-label">82</text>
  <line x1="354.20732202289145" y1="300.15748031496065" x2="354.20732202289145" y2="303.15748031496065" stroke="#666666" stroke-width="1"/>
  <text x="354.20732202289145" y="315.15748031496065" class="tick-label">84</text>
  <line x1="361.6884487377222" y1="300.15748031496065" x2="361.6884487377222" y2="303.15748031496065" stroke="#666666" stroke-width="1"/>
  <text x="361.6884487377222" y="315.15748031496065" class="tick-label">86</text>
  <line x1="369.169575452553" y1="300.15748031496065" x2="369.169575452553" y2="303.15748031496065" stroke="#666666" stroke-width="1"/>
  <text x="369.169575452553" y="315.15748031496065" class="tick-label">88</text>
  <line x1="376.6507021673837" y1="300.15748031496065" x2="376.6507021673837" y2="303.15748031496065" stroke="#666666" stroke-width="1"/>
  <text x="376.6507021673837" y="315.15748031496065" class="tick-label">90</text>
  <line x1="384.13182888221445" y1="300.15748031496065" x2="384.13182888221445" y2="303.15748031496065" stroke="#666666" stroke-width="1"/>
  <text x="384.13182888221445" y="315.15748031496065" class="tick-label">92</text>
  <line x1="391.6129555970452" y1="300.15748031496065" x2="391.6129555970452" y2="303.15748031496065" stroke="#666666" stroke-width="1"/>
  <text x="391.6129555970452" y="315.15748031496065" class="tick-label">94</text>
  <line x1="399.0940823118759" y1="300.15748031496065" x2="399.0940823118759" y2="303.15748031496065" stroke="#666666" stroke-width="1"/>
  <text x="399.0940823118759" y="315.15748031496065" class="tick-label">96</text>
  <line x1="37" y1="300.15748031496065" x2="40" y2="300.15748031496065" stroke="#666666" stroke-width="1"/>
  <text x="30" y="303.15748031496065" class="tick-label">0</text>
  <line x1="37" y1="275.1417322834646" x2="40" y2="275.1417322834646" stroke="#666666" stroke-width="1"/>
  <text x="30" y="278.1417322834646" class="tick-label">1</text>
  <line x1="37" y1="250.12598425196853" x2="40" y2="250.12598425196853" stroke="#666666" stroke-width="1"/>
  <text x="30" y="253.12598425196853" class="tick-label">2</text>
  <line x1="37" y1="225.11023622047244" x2="40" y2="225.11023622047244" stroke="#666666" stroke-width="1"/>
  <text x="30" y="228.11023622047244" class="tick-label">3</text>
  <line x1="37" y1="200.09448818897638" x2="40" y2="200.09448818897638" stroke="#666666" stroke-width="1"/>
  <text x="30" y="203.09448818897638" class="tick-label">4</text>
  <line x1="37" y1="175.07874015748033" x2="40" y2="175.07874015748033" stroke="#666666" stroke-width="1"/>
  <text x="30" y="178.07874015748033" class="tick-label">5</text>
  <line x1="37" y1="150.06299212598424" x2="40" y2="150.06299212598424" stroke="#666666" stroke-width="1"/>
  <text x="30" y="153.06299212598424" class="tick-label">6</text>
  <line x1="37" y1="125.04724409448818" x2="40" y2="125.04724409448818" stroke="#666666" stroke-width="1"/>
  <text x="30" y="128.04724409448818" class="tick-label">7</text>
  <line x1="37" y1="100.03149606299212" x2="40" y2="100.03149606299212" stroke="#666666" stroke-width="1"/>
  <text x="30" y="103.03149606299212" class="tick-label">8</text>
  <line x1="37" y1="75.01574803149606" x2="40" y2="75.01574803149606" stroke="#666666" stroke-width="1"/>
  <text x="30" y="78.01574803149606" class="tick-label">9</text>
  <line x1="37" y1="50.0" x2="40" y2="50.0" stroke="#666666" stroke-width="1"/>
  <text x="30" y="53.0" class="tick-label">10</text>
  <text x="221.41732283464566" y="330.15748031496065" class="axis-label">Number of Literals</text>
  <text x="15" y="175.07874015748033" class="axis-label" transform="rotate(-90, 15, 175.07874015748033)">Parse Tree Depth</text>
  <circle cx="58.70281678707687" cy="200.09448818897638" r="1" fill="#E5F5F5" stroke="none" opacity="0.3660466689212039"/>
  <circle cx="43.740563357415375" cy="275.1417322834646" r="2.5" fill="#0F9D9D" stroke="none" opacity="1.0"/>
  <circle cx="66.18394350190762" cy="125.04724409448818" r="1" fill="#E5F5F5" stroke="none" opacity="0.3028407169428475"/>
  <circle cx="81.14619693156912" cy="100.03149606299212" r="1" fill="#E5F5F5" stroke="none" opacity="0.31941156577612445"/>
  <circle cx="84.88676028898449" cy="50.0" r="1" fill="#E5F5F5" stroke="none" opacity="0.3125464998309097"/>
  <circle cx="118.55183050572286" cy="100.03149606299212" r="1" fill="#E5F5F5" stroke="none" opacity="0.305207981061887"/>
  <circle cx="51.22169007224612" cy="200.09448818897638" r="1.5" fill="#CCF0F0" stroke="none" opacity="0.39989854582346973"/>
  <circle cx="96.10845036123061" cy="100.03149606299212" r="1" fill="#E5F5F5" stroke="none" opacity="0.31112614135948596"/>
  <circle cx="66.18394350190762" cy="150.06299212598424" r="1" fill="#E5F5F5" stroke="none" opacity="0.3366925938451133"/>
  <circle cx="66.18394350190762" cy="200.09448818897638" r="1" fill="#E5F5F5" stroke="none" opacity="0.3191748393642205"/>
  <circle cx="43.740563357415375" cy="250.12598425196853" r="1.5" fill="#CCF0F0" stroke="none" opacity="0.44771728102806896"/>
  <circle cx="159.69802743729198" cy="50.0" r="1" fill="#E5F5F5" stroke="none" opacity="0.3049712546499831"/>
  <circle cx="77.40563357415374" cy="100.03149606299212" r="1" fill="#E5F5F5" stroke="none" opacity="0.31657084883327696"/>
  <circle cx="47.48112671483075" cy="175.07874015748033" r="1" fill="#E5F5F5" stroke="none" opacity="0.30662833953331076"/>
  <circle cx="73.66507021673837" cy="150.06299212598424" r="1" fill="#E5F5F5" stroke="none" opacity="0.33243151843084207"/>
  <circle cx="66.18394350190762" cy="100.03149606299212" r="1" fill="#E5F5F5" stroke="none" opacity="0.31704430165708486"/>
  <circle cx="88.62732364639987" cy="150.06299212598424" r="1" fill="#E5F5F5" stroke="none" opacity="0.3125464998309097"/>
  <circle cx="155.95746407987662" cy="50.0" r="1" fill="#E5F5F5" stroke="none" opacity="0.30568143388569496"/>
  <circle cx="51.22169007224612" cy="225.11023622047244" r="1" fill="#E5F5F5" stroke="none" opacity="0.3409536692593845"/>
  <circle cx="62.443380144492245" cy="50.0" r="1" fill="#E5F5F5" stroke="none" opacity="0.3016570848833277"/>
  <circle cx="54.9622534296615" cy="175.07874015748033" r="1" fill="#E5F5F5" stroke="none" opacity="0.3132566790666216"/>
  <circle cx="69.924506859323" cy="50.0" r="1" fill="#E5F5F5" stroke="none" opacity="0.30615488670950286"/>
  <circle cx="47.48112671483075" cy="250.12598425196853" r="1.5" fill="#CCF0F0" stroke="none" opacity="0.4074737910043963"/>
  <circle cx="62.443380144492245" cy="200.09448818897638" r="1" fill="#E5F5F5" stroke="none" opacity="0.33290497125464996"/>
  <circle cx="69.924506859323" cy="100.03149606299212" r="1" fill="#E5F5F5" stroke="none" opacity="0.31775448089279673"/>
  <circle cx="69.924506859323" cy="150.06299212598424" r="1" fill="#E5F5F5" stroke="none" opacity="0.32793371660466686"/>
  <circle cx="152.21690072246122" cy="50.0" r="1" fill="#E5F5F5" stroke="none" opacity="0.30402434900236724"/>
  <circle cx="54.9622534296615" cy="200.09448818897638" r="1.5" fill="#CCF0F0" stroke="none" opacity="0.4081839702401082"/>
  <circle cx="111.07070379089211" cy="100.03149606299212" r="1" fill="#E5F5F5" stroke="none" opacity="0.31278322624281363"/>
  <circle cx="137.25464729279975" cy="100.03149606299212" r="1" fill="#E5F5F5" stroke="none" opacity="0.3033141697666554"/>
  <circle cx="54.9622534296615" cy="150.06299212598424" r="1" fill="#E5F5F5" stroke="none" opacity="0.321778829895164"/>
  <circle cx="62.443380144492245" cy="150.06299212598424" r="1" fill="#E5F5F5" stroke="none" opacity="0.3402434900236726"/>
  <circle cx="81.14619693156912" cy="150.06299212598424" r="1" fill="#E5F5F5" stroke="none" opacity="0.3156239431856611"/>
  <circle cx="62.443380144492245" cy="100.03149606299212" r="1" fill="#E5F5F5" stroke="none" opacity="0.3153872167737572"/>
  <circle cx="103.58957707606137" cy="50.0" r="1" fill="#E5F5F5" stroke="none" opacity="0.30875887724044637"/>
  <circle cx="114.8112671483075" cy="100.03149606299212" r="1" fill="#E5F5F5" stroke="none" opacity="0.3092323300642543"/>
  <circle cx="148.47633736504588" cy="100.03149606299212" r="1" fill="#E5F5F5" stroke="none" opacity="0.3016570848833277"/>
  <circle cx="77.40563357415374" cy="50.0" r="1" fill="#E5F5F5" stroke="none" opacity="0.30733851876902263"/>
  <circle cx="122.29239386313824" cy="100.03149606299212" r="1" fill="#E5F5F5" stroke="none" opacity="0.30733851876902263"/>
  <circle cx="163.43859079470735" cy="100.03149606299212" r="1" fill="#E5F5F5" stroke="none" opacity="0.30094690564761584"/>
  <circle cx="47.48112671483075" cy="225.11023622047244" r="1" fill="#E5F5F5" stroke="none" opacity="0.3606019614474129"/>
  <circle cx="99.84901371864599" cy="50.0" r="1" fill="#E5F5F5" stroke="none" opacity="0.30946905647615824"/>
  <circle cx="99.84901371864599" cy="150.06299212598424" r="1" fill="#E5F5F5" stroke="none" opacity="0.3047345282380791"/>
  <circle cx="88.62732364639987" cy="100.03149606299212" r="1" fill="#E5F5F5" stroke="none" opacity="0.3137301318904295"/>
  <circle cx="77.40563357415374" cy="150.06299212598424" r="1" fill="#E5F5F5" stroke="none" opacity="0.3208319242475482"/>
  <circle cx="122.29239386313824" cy="50.0" r="1" fill="#E5F5F5" stroke="none" opacity="0.30946905647615824"/>
  <circle cx="155.95746407987662" cy="100.03149606299212" r="1" fill="#E5F5F5" stroke="none" opacity="0.30142035847142373"/>
  <circle cx="58.70281678707687" cy="150.06299212598424" r="1" fill="#E5F5F5" stroke="none" opacity="0.33882313155224886"/>
  <circle cx="81.14619693156912" cy="50.0" r="1" fill="#E5F5F5" stroke="none" opacity="0.31207304700710176"/>
  <circle cx="234.50929458559946" cy="50.0" r="1" fill="#E5F5F5" stroke="none" opacity="0.30094690564761584"/>
  <circle cx="163.43859079470735" cy="50.0" r="1" fill="#E5F5F5" stroke="none" opacity="0.3049712546499831"/>
  <circle cx="92.36788700381524" cy="100.03149606299212" r="1" fill="#E5F5F5" stroke="none" opacity="0.31680757524518094"/>
  <circle cx="103.58957707606137" cy="100.03149606299212" r="1" fill="#E5F5F5" stroke="none" opacity="0.31065268853567807"/>
  <circle cx="238.24985794301486" cy="50.0" r="1" fill="#E5F5F5" stroke="none" opacity="0.30142035847142373"/>
  <circle cx="43.740563357415375" cy="150.06299212598424" r="1" fill="#E5F5F5" stroke="none" opacity="0.30071017923571186"/>
  <circle cx="47.48112671483075" cy="200.09448818897638" r="1" fill="#E5F5F5" stroke="none" opacity="0.34923909367602296"/>
  <circle cx="66.18394350190762" cy="175.07874015748033" r="1" fill="#E5F5F5" stroke="none" opacity="0.30094690564761584"/>
  <circle cx="88.62732364639987" cy="50.0" r="1" fill="#E5F5F5" stroke="none" opacity="0.3080486980047345"/>
  <circle cx="126.03295722055361" cy="50.0" r="1" fill="#E5F5F5" stroke="none" opacity="0.3078119715928306"/>
  <circle cx="84.88676028898449" cy="150.06299212598424" r="1" fill="#E5F5F5" stroke="none" opacity="0.31491376394994924"/>
  <circle cx="279.39605487458397" cy="50.0" r="1" fill="#E5F5F5" stroke="none" opacity="0.30071017923571186"/>
  <circle cx="170.91971750953812" cy="50.0" r="1" fill="#E5F5F5" stroke="none" opacity="0.30402434900236724"/>
  <circle cx="73.66507021673837" cy="100.03149606299212" r="1" fill="#E5F5F5" stroke="none" opacity="0.3187013865404126"/>
  <circle cx="129.77352057796898" cy="100.03149606299212" r="1" fill="#E5F5F5" stroke="none" opacity="0.3042610754142712"/>
  <circle cx="66.18394350190762" cy="50.0" r="1" fill="#E5F5F5" stroke="none" opacity="0.305207981061887"/>
  <circle cx="84.88676028898449" cy="100.03149606299212" r="1" fill="#E5F5F5" stroke="none" opacity="0.31491376394994924"/>
  <circle cx="107.33014043347674" cy="50.0" r="1" fill="#E5F5F5" stroke="none" opacity="0.3099425092999662"/>
  <circle cx="144.73577400763048" cy="50.0" r="1" fill="#E5F5F5" stroke="none" opacity="0.30662833953331076"/>
  <circle cx="51.22169007224612" cy="150.06299212598424" r="1" fill="#E5F5F5" stroke="none" opacity="0.31159959418329386"/>
  <circle cx="178.40084422436885" cy="50.0" r="1" fill="#E5F5F5" stroke="none" opacity="0.3026039905309435"/>
  <circle cx="152.21690072246122" cy="100.03149606299212" r="1" fill="#E5F5F5" stroke="none" opacity="0.3021305377071356"/>
  <circle cx="167.17915415212275" cy="100.03149606299212" r="1" fill="#E5F5F5" stroke="none" opacity="0.30118363205951976"/>
  <circle cx="43.740563357415375" cy="225.11023622047244" r="1" fill="#E5F5F5" stroke="none" opacity="0.3260399053094352"/>
  <circle cx="286.8771815894147" cy="50.0" r="1" fill="#E5F5F5" stroke="none" opacity="0.30023672641190396"/>
  <circle cx="58.70281678707687" cy="175.07874015748033" r="1" fill="#E5F5F5" stroke="none" opacity="0.30662833953331076"/>
  <circle cx="137.25464729279975" cy="50.0" r="1" fill="#E5F5F5" stroke="none" opacity="0.3059181602975989"/>
  <circle cx="92.36788700381524" cy="150.06299212598424" r="1" fill="#E5F5F5" stroke="none" opacity="0.3071017923571187"/>
  <circle cx="140.9952106502151" cy="100.03149606299212" r="1" fill="#E5F5F5" stroke="none" opacity="0.30307744335475145"/>
  <circle cx="219.54704115593796" cy="50.0" r="1" fill="#E5F5F5" stroke="none" opacity="0.30189381129523163"/>
  <circle cx="92.36788700381524" cy="50.0" r="1" fill="#E5F5F5" stroke="none" opacity="0.30946905647615824"/>
  <circle cx="140.9952106502151" cy="50.0" r="1" fill="#E5F5F5" stroke="none" opacity="0.3059181602975989"/>
  <circle cx="58.70281678707687" cy="125.04724409448818" r="1" fill="#E5F5F5" stroke="none" opacity="0.30402434900236724"/>
  <circle cx="182.14140758178422" cy="50.0" r="1" fill="#E5F5F5" stroke="none" opacity="0.3042610754142712"/>
  <circle cx="84.88676028898449" cy="75.01574803149606" r="1" fill="#E5F5F5" stroke="none" opacity="0.30071017923571186"/>
  <circle cx="118.55183050572286" cy="50.0" r="1" fill="#E5F5F5" stroke="none" opacity="0.3078119715928306"/>
  <circle cx="264.43380144492244" cy="50.0" r="1" fill="#E5F5F5" stroke="none" opacity="0.3004734528238079"/>
  <circle cx="111.07070379089211" cy="50.0" r="1" fill="#E5F5F5" stroke="none" opacity="0.3099425092999662"/>
  <circle cx="51.22169007224612" cy="175.07874015748033" r="1" fill="#E5F5F5" stroke="none" opacity="0.31112614135948596"/>
  <circle cx="148.47633736504588" cy="50.0" r="1" fill="#E5F5F5" stroke="none" opacity="0.30615488670950286"/>
  <circle cx="107.33014043347674" cy="100.03149606299212" r="1" fill="#E5F5F5" stroke="none" opacity="0.3071017923571187"/>
  <circle cx="96.10845036123061" cy="50.0" r="1" fill="#E5F5F5" stroke="none" opacity="0.30662833953331076"/>
  <circle cx="114.8112671483075" cy="50.0" r="1" fill="#E5F5F5" stroke="none" opacity="0.30852215082854245"/>
  <circle cx="268.17436480233783" cy="50.0" r="1" fill="#E5F5F5" stroke="none" opacity="0.30071017923571186"/>
  <circle cx="96.10845036123061" cy="150.06299212598424" r="1" fill="#E5F5F5" stroke="none" opacity="0.30615488670950286"/>
  <circle cx="126.03295722055361" cy="100.03149606299212" r="1" fill="#E5F5F5" stroke="none" opacity="0.30639161312140684"/>
  <circle cx="62.443380144492245" cy="75.01574803149606" r="1" fill="#E5F5F5" stroke="none" opacity="0.30094690564761584"/>
  <circle cx="144.73577400763048" cy="100.03149606299212" r="1" fill="#E5F5F5" stroke="none" opacity="0.30402434900236724"/>
  <circle cx="51.22169007224612" cy="125.04724409448818" r="1" fill="#E5F5F5" stroke="none" opacity="0.3016570848833277"/>
  <circle cx="99.84901371864599" cy="100.03149606299212" r="1" fill="#E5F5F5" stroke="none" opacity="0.3113628677713899"/>
  <circle cx="200.8442243688611" cy="50.0" r="1" fill="#E5F5F5" stroke="none" opacity="0.3021305377071356"/>
  <circle cx="133.51408393538435" cy="50.0" r="1" fill="#E5F5F5" stroke="none" opacity="0.30686506594521473"/>
  <circle cx="290.6177449468301" cy="50.0" r="1" fill="#E5F5F5" stroke="none" opacity="0.30023672641190396"/>
  <circle cx="204.5847877262765" cy="50.0" r="1" fill="#E5F5F5" stroke="none" opacity="0.3016570848833277"/>
  <circle cx="103.58957707606137" cy="150.06299212598424" r="1" fill="#E5F5F5" stroke="none" opacity="0.3016570848833277"/>
  <circle cx="283.13661823199936" cy="50.0" r="1" fill="#E5F5F5" stroke="none" opacity="0.3004734528238079"/>
  <circle cx="107.33014043347674" cy="150.06299212598424" r="1" fill="#E5F5F5" stroke="none" opacity="0.3004734528238079"/>
  <circle cx="73.66507021673837" cy="50.0" r="1" fill="#E5F5F5" stroke="none" opacity="0.305207981061887"/>
  <circle cx="62.443380144492245" cy="125.04724409448818" r="1" fill="#E5F5F5" stroke="none" opacity="0.3026039905309435"/>
  <circle cx="43.740563357415375" cy="200.09448818897638" r="1" fill="#E5F5F5" stroke="none" opacity="0.30852215082854245"/>
  <circle cx="133.51408393538435" cy="100.03149606299212" r="1" fill="#E5F5F5" stroke="none" opacity="0.30355089617855935"/>
  <circle cx="275.65549151716857" cy="50.0" r="1" fill="#E5F5F5" stroke="none" opacity="0.30071017923571186"/>
  <circle cx="62.443380144492245" cy="175.07874015748033" r="1" fill="#E5F5F5" stroke="none" opacity="0.3033141697666554"/>
  <circle cx="193.36309765403035" cy="50.0" r="1" fill="#E5F5F5" stroke="none" opacity="0.3016570848833277"/>
  <circle cx="58.70281678707687" cy="100.03149606299212" r="1" fill="#E5F5F5" stroke="none" opacity="0.30946905647615824"/>
  <circle cx="223.28760451335336" cy="50.0" r="1" fill="#E5F5F5" stroke="none" opacity="0.30094690564761584"/>
  <circle cx="77.40563357415374" cy="75.01574803149606" r="1" fill="#E5F5F5" stroke="none" opacity="0.30142035847142373"/>
  <circle cx="129.77352057796898" cy="50.0" r="1" fill="#E5F5F5" stroke="none" opacity="0.3047345282380791"/>
  <circle cx="271.91492815975323" cy="50.0" r="1" fill="#E5F5F5" stroke="none" opacity="0.30023672641190396"/>
  <circle cx="54.9622534296615" cy="100.03149606299212" r="1" fill="#E5F5F5" stroke="none" opacity="0.3026039905309435"/>
  <circle cx="69.924506859323" cy="200.09448818897638" r="1" fill="#E5F5F5" stroke="none" opacity="0.30355089617855935"/>
  <circle cx="170.91971750953812" cy="100.03149606299212" r="1" fill="#E5F5F5" stroke="none" opacity="0.30094690564761584"/>
  <circle cx="212.06591444110722" cy="50.0" r="1" fill="#E5F5F5" stroke="none" opacity="0.3026039905309435"/>
  <circle cx="47.48112671483075" cy="150.06299212598424" r="1" fill="#E5F5F5" stroke="none" opacity="0.3021305377071356"/>
  <circle cx="185.88197093919962" cy="50.0" r="1" fill="#E5F5F5" stroke="none" opacity="0.3033141697666554"/>
  <circle cx="54.9622534296615" cy="125.04724409448818" r="1" fill="#E5F5F5" stroke="none" opacity="0.3016570848833277"/>
  <circle cx="245.7309846578456" cy="50.0" r="1" fill="#E5F5F5" stroke="none" opacity="0.30118363205951976"/>
  <circle cx="174.66028086695349" cy="50.0" r="1" fill="#E5F5F5" stroke="none" opacity="0.3047345282380791"/>
  <circle cx="167.17915415212275" cy="50.0" r="1" fill="#E5F5F5" stroke="none" opacity="0.3047345282380791"/>
  <circle cx="66.18394350190762" cy="75.01574803149606" r="1" fill="#E5F5F5" stroke="none" opacity="0.30142035847142373"/>
  <circle cx="197.10366101144572" cy="50.0" r="1" fill="#E5F5F5" stroke="none" opacity="0.3026039905309435"/>
  <circle cx="189.622534296615" cy="50.0" r="1" fill="#E5F5F5" stroke="none" opacity="0.3026039905309435"/>
  <circle cx="208.32535108369186" cy="50.0" r="1" fill="#E5F5F5" stroke="none" opacity="0.30071017923571186"/>
  <circle cx="253.21211137267633" cy="50.0" r="1" fill="#E5F5F5" stroke="none" opacity="0.3004734528238079"/>
  <circle cx="159.69802743729198" cy="100.03149606299212" r="1" fill="#E5F5F5" stroke="none" opacity="0.30071017923571186"/>
  <circle cx="331.76394187839924" cy="50.0" r="1" fill="#E5F5F5" stroke="none" opacity="0.30023672641190396"/>
  <circle cx="230.7687312281841" cy="50.0" r="1" fill="#E5F5F5" stroke="none" opacity="0.30142035847142373"/>
  <circle cx="51.22169007224612" cy="100.03149606299212" r="1" fill="#E5F5F5" stroke="none" opacity="0.30071017923571186"/>
  <circle cx="227.02816787076873" cy="50.0" r="1" fill="#E5F5F5" stroke="none" opacity="0.30189381129523163"/>
  <circle cx="178.40084422436885" cy="100.03149606299212" r="1" fill="#E5F5F5" stroke="none" opacity="0.30118363205951976"/>
  <circle cx="174.66028086695349" cy="100.03149606299212" r="1" fill="#E5F5F5" stroke="none" opacity="0.30071017923571186"/>
  <circle cx="204.5847877262765" cy="100.03149606299212" r="1" fill="#E5F5F5" stroke="none" opacity="0.30023672641190396"/>
  <circle cx="215.8064777985226" cy="100.03149606299212" r="1" fill="#E5F5F5" stroke="none" opacity="0.30023672641190396"/>
  <circle cx="81.14619693156912" cy="75.01574803149606" r="1" fill="#E5F5F5" stroke="none" opacity="0.30023672641190396"/>
  <circle cx="402.8346456692913" cy="50.0" r="1" fill="#E5F5F5" stroke="none" opacity="0.30023672641190396"/>
  <circle cx="73.66507021673837" cy="75.01574803149606" r="1" fill="#E5F5F5" stroke="none" opacity="0.30094690564761584"/>
  <circle cx="256.95267473009176" cy="50.0" r="1" fill="#E5F5F5" stroke="none" opacity="0.30118363205951976"/>
  <circle cx="69.924506859323" cy="175.07874015748033" r="1" fill="#E5F5F5" stroke="none" opacity="0.30023672641190396"/>
  <circle cx="43.740563357415375" cy="175.07874015748033" r="1" fill="#E5F5F5" stroke="none" opacity="0.3004734528238079"/>
  <circle cx="81.14619693156912" cy="125.04724409448818" r="1" fill="#E5F5F5" stroke="none" opacity="0.30023672641190396"/>
  <circle cx="54.9622534296615" cy="225.11023622047244" r="1" fill="#E5F5F5" stroke="none" opacity="0.3016570848833277"/>
  <circle cx="111.07070379089211" cy="150.06299212598424" r="1" fill="#E5F5F5" stroke="none" opacity="0.30023672641190396"/>
  <circle cx="58.70281678707687" cy="75.01574803149606" r="1" fill="#E5F5F5" stroke="none" opacity="0.3004734528238079"/>
  <circle cx="114.8112671483075" cy="150.06299212598424" r="1" fill="#E5F5F5" stroke="none" opacity="0.30071017923571186"/>
  <circle cx="118.55183050572286" cy="150.06299212598424" r="1" fill="#E5F5F5" stroke="none" opacity="0.30023672641190396"/>
  <circle cx="200.8442243688611" cy="100.03149606299212" r="1" fill="#E5F5F5" stroke="none" opacity="0.30023672641190396"/>
  <circle cx="215.8064777985226" cy="50.0" r="1" fill="#E5F5F5" stroke="none" opacity="0.30118363205951976"/>
  <circle cx="69.924506859323" cy="75.01574803149606" r="1" fill="#E5F5F5" stroke="none" opacity="0.30118363205951976"/>
  <circle cx="58.70281678707687" cy="50.0" r="1" fill="#E5F5F5" stroke="none" opacity="0.30023672641190396"/>
  <circle cx="69.924506859323" cy="125.04724409448818" r="1" fill="#E5F5F5" stroke="none" opacity="0.3004734528238079"/>
  <circle cx="294.3583083042455" cy="50.0" r="1" fill="#E5F5F5" stroke="none" opacity="0.30023672641190396"/>
  <circle cx="47.48112671483075" cy="125.04724409448818" r="1" fill="#E5F5F5" stroke="none" opacity="0.30023672641190396"/>
  <circle cx="73.66507021673837" cy="125.04724409448818" r="1" fill="#E5F5F5" stroke="none" opacity="0.3004734528238079"/>
  <circle cx="77.40563357415374" cy="125.04724409448818" r="1" fill="#E5F5F5" stroke="none" opacity="0.30023672641190396"/>
  <circle cx="182.14140758178422" cy="100.03149606299212" r="1" fill="#E5F5F5" stroke="none" opacity="0.30023672641190396"/>
  <circle cx="54.9622534296615" cy="50.0" r="1" fill="#E5F5F5" stroke="none" opacity="0.3004734528238079"/>
  <circle cx="189.622534296615" cy="100.03149606299212" r="1" fill="#E5F5F5" stroke="none" opacity="0.30023672641190396"/>
  <circle cx="241.99042130043023" cy="50.0" r="1" fill="#E5F5F5" stroke="none" opacity="0.30023672641190396"/>
  <circle cx="197.10366101144572" cy="100.03149606299212" r="1" fill="#E5F5F5" stroke="none" opacity="0.30023672641190396"/>
  <circle cx="185.88197093919962" cy="100.03149606299212" r="1" fill="#E5F5F5" stroke="none" opacity="0.30023672641190396"/>
  <circle cx="111.07070379089211" cy="75.01574803149606" r="1" fill="#E5F5F5" stroke="none" opacity="0.30023672641190396"/>
  <circle cx="193.36309765403035" cy="100.03149606299212" r="1" fill="#E5F5F5" stroke="none" opacity="0.30023672641190396"/>
  <circle cx="208.32535108369186" cy="100.03149606299212" r="1" fill="#E5F5F5" stroke="none" opacity="0.30023672641190396"/>
  <g>
    <text x="460.3346456692913" y="55.0" class="tree-title">(1, 1)</text>
    <rect x="422.8346456692913" y="60.0" width="75" height="60" fill="none" stroke="#E0E0E0" stroke-width="0.5"/>
    <circle cx="460.3346456692913" cy="90.0" r="8" fill="#B3E5E5" stroke="#0F9D9D" stroke-width="1"/>
    <text x="460.3346456692913" y="93.0" class="node-text">x0</text>
  </g>
  <line x1="43.740563357415375" y1="275.1417322834646" x2="422.8346456692913" y2="90.0" stroke="#CCCCCC" stroke-width="0.5" stroke-dasharray="2,2"/>
  <g>
    <text x="460.3346456692913" y="141.71916010498688" class="tree-title">(5, 4)</text>
    <rect x="422.8346456692913" y="146.71916010498688" width="75" height="60" fill="none" stroke="#E0E0E0" stroke-width="0.5"/>
    <circle cx="460.3346456692913" cy="176.71916010498688" r="8" fill="#0F9D9D" stroke="#0F9D9D" stroke-width="1"/>
    <text x="460.3346456692913" y="179.71916010498688" class="node-text" fill="white">∨</text>
    <line x1="460.3346456692913" y1="184.71916010498688" x2="446.5846456692913" y2="183.71916010498688" stroke="#666666" stroke-width="1"/>
    <line x1="460.3346456692913" y1="184.71916010498688" x2="474.0846456692913" y2="183.71916010498688" stroke="#666666" stroke-width="1"/>
    <circle cx="446.5846456692913" cy="191.71916010498688" r="8" fill="#0F9D9D" stroke="#0F9D9D" stroke-width="1"/>
    <text x="446.5846456692913" y="194.71916010498688" class="node-text" fill="white">∧</text>
    <line x1="446.5846456692913" y1="199.71916010498688" x2="439.7096456692913" y2="198.71916010498688" stroke="#666666" stroke-width="1"/>
    <line x1="446.5846456692913" y1="199.71916010498688" x2="453.4596456692913" y2="198.71916010498688" stroke="#666666" stroke-width="1"/>
    <circle cx="439.7096456692913" cy="206.71916010498688" r="8" fill="#0F9D9D" stroke="#0F9D9D" stroke-width="1"/>
    <text x="439.7096456692913" y="209.71916010498688" class="node-text" fill="white">∨</text>
    <line x1="439.7096456692913" y1="214.71916010498688" x2="436.2721456692913" y2="213.71916010498688" stroke="#666666" stroke-width="1"/>
    <line x1="439.7096456692913" y1="214.71916010498688" x2="443.1471456692913" y2="213.71916010498688" stroke="#666666" stroke-width="1"/>
    <circle cx="436.2721456692913" cy="221.71916010498688" r="8" fill="#B3E5E5" stroke="#0F9D9D" stroke-width="1"/>
    <text x="436.2721456692913" y="224.71916010498688" class="node-text">x6</text>
    <circle cx="443.1471456692913" cy="221.71916010498688" r="8" fill="#B3E5E5" stroke="#0F9D9D" stroke-width="1"/>
    <text x="443.1471456692913" y="224.71916010498688" class="node-text">x27</text>
    <circle cx="453.4596456692913" cy="206.71916010498688" r="8" fill="#0F9D9D" stroke="#0F9D9D" stroke-width="1"/>
    <text x="453.4596456692913" y="209.71916010498688" class="node-text" fill="white">∨</text>
    <line x1="453.4596456692913" y1="214.71916010498688" x2="450.0221456692913" y2="213.71916010498688" stroke="#666666" stroke-width="1"/>
    <line x1="453.4596456692913" y1="214.71916010498688" x2="456.8971456692913" y2="213.71916010498688" stroke="#666666" stroke-width="1"/>
    <circle cx="450.0221456692913" cy="221.71916010498688" r="8" fill="#B3E5E5" stroke="#0F9D9D" stroke-width="1"/>
    <text x="450.0221456692913" y="224.71916010498688" class="node-text">x13</text>
    <circle cx="456.8971456692913" cy="221.71916010498688" r="8" fill="#B3E5E5" stroke="#0F9D9D" stroke-width="1"/>
    <text x="456.8971456692913" y="224.71916010498688" class="node-text">x1</text>
    <circle cx="474.0846456692913" cy="191.71916010498688" r="8" fill="#B3E5E5" stroke="#0F9D9D" stroke-width="1"/>
    <text x="474.0846456692913" y="194.71916010498688" class="node-text">x26</text>
  </g>
  <line x1="58.70281678707687" y1="200.09448818897638" x2="422.8346456692913" y2="176.71916010498688" stroke="#CCCCCC" stroke-width="0.5" stroke-dasharray="2,2"/>
  <g>
    <text x="460.3346456692913" y="228.43832020997377" class="tree-title">(9, 6)</text>
    <rect x="422.8346456692913" y="233.43832020997377" width="75" height="60" fill="none" stroke="#E0E0E0" stroke-width="0.5"/>
    <circle cx="460.3346456692913" cy="263.43832020997377" r="8" fill="#0F9D9D" stroke="#0F9D9D" stroke-width="1"/>
    <text x="460.3346456692913" y="266.43832020997377" class="node-text" fill="white">∨</text>
    <line x1="460.3346456692913" y1="271.43832020997377" x2="446.5846456692913" y2="270.43832020997377" stroke="#666666" stroke-width="1"/>
    <line x1="460.3346456692913" y1="271.43832020997377" x2="474.0846456692913" y2="270.43832020997377" stroke="#666666" stroke-width="1"/>
    <circle cx="446.5846456692913" cy="278.43832020997377" r="8" fill="#0F9D9D" stroke="#0F9D9D" stroke-width="1"/>
    <text x="446.5846456692913" y="281.43832020997377" class="node-text" fill="white">¬</text>
    <line x1="446.5846456692913" y1="286.43832020997377" x2="446.5846456692913" y2="285.43832020997377" stroke="#666666" stroke-width="1"/>
    <circle cx="446.5846456692913" cy="293.43832020997377" r="8" fill="#0F9D9D" stroke="#0F9D9D" stroke-width="1"/>
    <text x="446.5846456692913" y="296.43832020997377" class="node-text" fill="white">¬</text>
    <line x1="446.5846456692913" y1="301.43832020997377" x2="446.5846456692913" y2="300.43832020997377" stroke="#666666" stroke-width="1"/>
    <circle cx="446.5846456692913" cy="308.43832020997377" r="8" fill="#0F9D9D" stroke="#0F9D9D" stroke-width="1"/>
    <text x="446.5846456692913" y="311.43832020997377" class="node-text" fill="white">∨</text>
    <line x1="446.5846456692913" y1="316.43832020997377" x2="439.7096456692913" y2="315.43832020997377" stroke="#666666" stroke-width="1"/>
    <line x1="446.5846456692913" y1="316.43832020997377" x2="453.4596456692913" y2="315.43832020997377" stroke="#666666" stroke-width="1"/>
    <circle cx="439.7096456692913" cy="323.43832020997377" r="8" fill="#B3E5E5" stroke="#0F9D9D" stroke-width="1"/>
    <text x="439.7096456692913" y="326.43832020997377" class="node-text">x7</text>
    <circle cx="453.4596456692913" cy="323.43832020997377" r="8" fill="#0F9D9D" stroke="#0F9D9D" stroke-width="1"/>
    <text x="453.4596456692913" y="326.43832020997377" class="node-text" fill="white">∧</text>
    <line x1="453.4596456692913" y1="331.43832020997377" x2="450.0221456692913" y2="330.43832020997377" stroke="#666666" stroke-width="1"/>
    <line x1="453.4596456692913" y1="331.43832020997377" x2="456.8971456692913" y2="330.43832020997377" stroke="#666666" stroke-width="1"/>
    <circle cx="450.0221456692913" cy="338.43832020997377" r="8" fill="#B3E5E5" stroke="#0F9D9D" stroke-width="1"/>
    <text x="450.0221456692913" y="341.43832020997377" class="node-text">x27</text>
    <circle cx="456.8971456692913" cy="338.43832020997377" r="8" fill="#B3E5E5" stroke="#0F9D9D" stroke-width="1"/>
    <text x="456.8971456692913" y="341.43832020997377" class="node-text">x4</text>
    <circle cx="474.0846456692913" cy="278.43832020997377" r="8" fill="#0F9D9D" stroke="#0F9D9D" stroke-width="1"/>
    <text x="474.0846456692913" y="281.43832020997377" class="node-text" fill="white">∨</text>
    <line x1="474.0846456692913" y1="286.43832020997377" x2="467.2096456692913" y2="285.43832020997377" stroke="#666666" stroke-width="1"/>
    <line x1="474.0846456692913" y1="286.43832020997377" x2="480.9596456692913" y2="285.43832020997377" stroke="#666666" stroke-width="1"/>
    <circle cx="467.2096456692913" cy="293.43832020997377" r="8" fill="#0F9D9D" stroke="#0F9D9D" stroke-width="1"/>
    <text x="467.2096456692913" y="296.43832020997377" class="node-text" fill="white">∧</text>
    <line x1="467.2096456692913" y1="301.43832020997377" x2="463.7721456692913" y2="300.43832020997377" stroke="#666666" stroke-width="1"/>
    <line x1="467.2096456692913" y1="301.43832020997377" x2="470.6471456692913" y2="300.43832020997377" stroke="#666666" stroke-width="1"/>
    <circle cx="463.7721456692913" cy="308.43832020997377" r="8" fill="#0F9D9D" stroke="#0F9D9D" stroke-width="1"/>
    <text x="463.7721456692913" y="311.43832020997377" class="node-text" fill="white">∧</text>
    <line x1="463.7721456692913" y1="316.43832020997377" x2="462.0533956692913" y2="315.43832020997377" stroke="#666666" stroke-width="1"/>
    <line x1="463.7721456692913" y1="316.43832020997377" x2="465.4908956692913" y2="315.43832020997377" stroke="#666666" stroke-width="1"/>
    <circle cx="462.0533956692913" cy="323.43832020997377" r="8" fill="#0F9D9D" stroke="#0F9D9D" stroke-width="1"/>
    <text x="462.0533956692913" y="326.43832020997377" class="node-text" fill="white">∧</text>
    <line x1="462.0533956692913" y1="331.43832020997377" x2="461.1940206692913" y2="330.43832020997377" stroke="#666666" stroke-width="1"/>
    <line x1="462.0533956692913" y1="331.43832020997377" x2="462.9127706692913" y2="330.43832020997377" stroke="#666666" stroke-width="1"/>
    <circle cx="461.1940206692913" cy="338.43832020997377" r="8" fill="#B3E5E5" stroke="#0F9D9D" stroke-width="1"/>
    <text x="461.1940206692913" y="341.43832020997377" class="node-text">x23</text>
    <circle cx="462.9127706692913" cy="338.43832020997377" r="8" fill="#B3E5E5" stroke="#0F9D9D" stroke-width="1"/>
    <text x="462.9127706692913" y="341.43832020997377" class="node-text">x9</text>
    <circle cx="465.4908956692913" cy="323.43832020997377" r="8" fill="#0F9D9D" stroke="#0F9D9D" stroke-width="1"/>
    <text x="465.4908956692913" y="326.43832020997377" class="node-text" fill="white">∨</text>
    <line x1="465.4908956692913" y1="331.43832020997377" x2="464.6315206692913" y2="330.43832020997377" stroke="#666666" stroke-width="1"/>
    <line x1="465.4908956692913" y1="331.43832020997377" x2="466.3502706692913" y2="330.43832020997377" stroke="#666666" stroke-width="1"/>
    <circle cx="464.6315206692913" cy="338.43832020997377" r="8" fill="#B3E5E5" stroke="#0F9D9D" stroke-width="1"/>
    <text x="464.6315206692913" y="341.43832020997377" class="node-text">x17</text>
    <circle cx="466.3502706692913" cy="338.43832020997377" r="8" fill="#B3E5E5" stroke="#0F9D9D" stroke-width="1"/>
    <text x="466.3502706692913" y="341.43832020997377" class="node-text">x29</text>
    <circle cx="470.6471456692913" cy="308.43832020997377" r="8" fill="#B3E5E5" stroke="#0F9D9D" stroke-width="1"/>
    <text x="470.6471456692913" y="311.43832020997377" class="node-text">x17</text>
    <circle cx="480.9596456692913" cy="293.43832020997377" r="8" fill="#B3E5E5" stroke="#0F9D9D" stroke-width="1"/>
    <text x="480.9596456692913" y="296.43832020997377" class="node-text">x5</text>
  </g>
  <line x1="73.66507021673837" y1="150.06299212598424" x2="422.8346456692913" y2="263.43832020997377" stroke="#CCCCCC" stroke-width="0.5" stroke-dasharray="2,2"/>
</svg>