<?xml version="1.0" encoding="utf-8" standalone="no"?>
<!DOCTYPE svg PUBLIC "-//W3C//DTD SVG 1.1//EN"
  "http://www.w3.org/Graphics/SVG/1.1/DTD/svg11.dtd">
<svg xmlns:xlink="http://www.w3.org/1999/xlink" width="1144.49625pt" height="426.612113pt" viewBox="0 0 1144.49625 426.612113" xmlns="http://www.w3.org/2000/svg" version="1.1">
 <metadata>
  <rdf:RDF xmlns:dc="http://purl.org/dc/elements/1.1/" xmlns:cc="http://creativecommons.org/ns#" xmlns:rdf="http://www.w3.org/1999/02/22-rdf-syntax-ns#">
   <cc:Work>
    <dc:type rdf:resource="http://purl.org/dc/dcmitype/StillImage"/>
    <dc:date>2025-07-09T01:49:13.492083</dc:date>
    <dc:format>image/svg+xml</dc:format>
    <dc:creator>
     <cc:Agent>
      <dc:title>Matplotlib v3.10.3, https://matplotlib.org/</dc:title>
     </cc:Agent>
    </dc:creator>
   </cc:Work>
  </rdf:RDF>
 </metadata>
 <defs>
  <style type="text/css">*{stroke-linejoin: round; stroke-linecap: butt}</style>
 </defs>
 <g id="figure_1">
  <g id="patch_1">
   <path d="M 0 426.612113 
L 1144.49625 426.612113 
L 1144.49625 0 
L 0 0 
z
" style="fill: #ffffff"/>
  </g>
  <g id="axes_1">
   <g id="patch_2">
    <path d="M 56.50625 385.575207 
L 569.015223 385.575207 
L 569.015223 55.714487 
L 56.50625 55.714487 
z
" style="fill: #ffffff"/>
   </g>
   <g id="matplotlib.axis_1">
    <g id="xtick_1">
     <g id="line2d_1">
      <path d="M 79.802112 385.575207 
L 79.802112 55.714487 
" clip-path="url(#p8b4cdcb7bf)" style="fill: none; stroke: #b0b0b0; stroke-opacity: 0.3; stroke-width: 0.8; stroke-linecap: square"/>
     </g>
     <g id="line2d_2">
      <defs>
       <path id="mbda22af888" d="M 0 0 
L 0 3.5 
" style="stroke: #000000; stroke-width: 0.8"/>
      </defs>
      <g>
       <use xlink:href="#mbda22af888" x="79.802112" y="385.575207" style="stroke: #000000; stroke-width: 0.8"/>
      </g>
     </g>
     <g id="text_1">
      <!-- 0 -->
      <g transform="translate(76.620862 400.173644) scale(0.1 -0.1)">
       <defs>
        <path id="DejaVuSans-30" d="M 2034 4250 
Q 1547 4250 1301 3770 
Q 1056 3291 1056 2328 
Q 1056 1369 1301 889 
Q 1547 409 2034 409 
Q 2525 409 2770 889 
Q 3016 1369 3016 2328 
Q 3016 3291 2770 3770 
Q 2525 4250 2034 4250 
z
M 2034 4750 
Q 2819 4750 3233 4129 
Q 3647 3509 3647 2328 
Q 3647 1150 3233 529 
Q 2819 -91 2034 -91 
Q 1250 -91 836 529 
Q 422 1150 422 2328 
Q 422 3509 836 4129 
Q 1250 4750 2034 4750 
z
" transform="scale(0.015625)"/>
       </defs>
       <use xlink:href="#DejaVuSans-30"/>
      </g>
     </g>
    </g>
    <g id="xtick_2">
     <g id="line2d_3">
      <path d="M 173.926809 385.575207 
L 173.926809 55.714487 
" clip-path="url(#p8b4cdcb7bf)" style="fill: none; stroke: #b0b0b0; stroke-opacity: 0.3; stroke-width: 0.8; stroke-linecap: square"/>
     </g>
     <g id="line2d_4">
      <g>
       <use xlink:href="#mbda22af888" x="173.926809" y="385.575207" style="stroke: #000000; stroke-width: 0.8"/>
      </g>
     </g>
     <g id="text_2">
      <!-- 20 -->
      <g transform="translate(167.564309 400.173644) scale(0.1 -0.1)">
       <defs>
        <path id="DejaVuSans-32" d="M 1228 531 
L 3431 531 
L 3431 0 
L 469 0 
L 469 531 
Q 828 903 1448 1529 
Q 2069 2156 2228 2338 
Q 2531 2678 2651 2914 
Q 2772 3150 2772 3378 
Q 2772 3750 2511 3984 
Q 2250 4219 1831 4219 
Q 1534 4219 1204 4116 
Q 875 4013 500 3803 
L 500 4441 
Q 881 4594 1212 4672 
Q 1544 4750 1819 4750 
Q 2544 4750 2975 4387 
Q 3406 4025 3406 3419 
Q 3406 3131 3298 2873 
Q 3191 2616 2906 2266 
Q 2828 2175 2409 1742 
Q 1991 1309 1228 531 
z
" transform="scale(0.015625)"/>
       </defs>
       <use xlink:href="#DejaVuSans-32"/>
       <use xlink:href="#DejaVuSans-30" transform="translate(63.623047 0)"/>
      </g>
     </g>
    </g>
    <g id="xtick_3">
     <g id="line2d_5">
      <path d="M 268.051506 385.575207 
L 268.051506 55.714487 
" clip-path="url(#p8b4cdcb7bf)" style="fill: none; stroke: #b0b0b0; stroke-opacity: 0.3; stroke-width: 0.8; stroke-linecap: square"/>
     </g>
     <g id="line2d_6">
      <g>
       <use xlink:href="#mbda22af888" x="268.051506" y="385.575207" style="stroke: #000000; stroke-width: 0.8"/>
      </g>
     </g>
     <g id="text_3">
      <!-- 40 -->
      <g transform="translate(261.689006 400.173644) scale(0.1 -0.1)">
       <defs>
        <path id="DejaVuSans-34" d="M 2419 4116 
L 825 1625 
L 2419 1625 
L 2419 4116 
z
M 2253 4666 
L 3047 4666 
L 3047 1625 
L 3713 1625 
L 3713 1100 
L 3047 1100 
L 3047 0 
L 2419 0 
L 2419 1100 
L 313 1100 
L 313 1709 
L 2253 4666 
z
" transform="scale(0.015625)"/>
       </defs>
       <use xlink:href="#DejaVuSans-34"/>
       <use xlink:href="#DejaVuSans-30" transform="translate(63.623047 0)"/>
      </g>
     </g>
    </g>
    <g id="xtick_4">
     <g id="line2d_7">
      <path d="M 362.176202 385.575207 
L 362.176202 55.714487 
" clip-path="url(#p8b4cdcb7bf)" style="fill: none; stroke: #b0b0b0; stroke-opacity: 0.3; stroke-width: 0.8; stroke-linecap: square"/>
     </g>
     <g id="line2d_8">
      <g>
       <use xlink:href="#mbda22af888" x="362.176202" y="385.575207" style="stroke: #000000; stroke-width: 0.8"/>
      </g>
     </g>
     <g id="text_4">
      <!-- 60 -->
      <g transform="translate(355.813702 400.173644) scale(0.1 -0.1)">
       <defs>
        <path id="DejaVuSans-36" d="M 2113 2584 
Q 1688 2584 1439 2293 
Q 1191 2003 1191 1497 
Q 1191 994 1439 701 
Q 1688 409 2113 409 
Q 2538 409 2786 701 
Q 3034 994 3034 1497 
Q 3034 2003 2786 2293 
Q 2538 2584 2113 2584 
z
M 3366 4563 
L 3366 3988 
Q 3128 4100 2886 4159 
Q 2644 4219 2406 4219 
Q 1781 4219 1451 3797 
Q 1122 3375 1075 2522 
Q 1259 2794 1537 2939 
Q 1816 3084 2150 3084 
Q 2853 3084 3261 2657 
Q 3669 2231 3669 1497 
Q 3669 778 3244 343 
Q 2819 -91 2113 -91 
Q 1303 -91 875 529 
Q 447 1150 447 2328 
Q 447 3434 972 4092 
Q 1497 4750 2381 4750 
Q 2619 4750 2861 4703 
Q 3103 4656 3366 4563 
z
" transform="scale(0.015625)"/>
       </defs>
       <use xlink:href="#DejaVuSans-36"/>
       <use xlink:href="#DejaVuSans-30" transform="translate(63.623047 0)"/>
      </g>
     </g>
    </g>
    <g id="xtick_5">
     <g id="line2d_9">
      <path d="M 456.300899 385.575207 
L 456.300899 55.714487 
" clip-path="url(#p8b4cdcb7bf)" style="fill: none; stroke: #b0b0b0; stroke-opacity: 0.3; stroke-width: 0.8; stroke-linecap: square"/>
     </g>
     <g id="line2d_10">
      <g>
       <use xlink:href="#mbda22af888" x="456.300899" y="385.575207" style="stroke: #000000; stroke-width: 0.8"/>
      </g>
     </g>
     <g id="text_5">
      <!-- 80 -->
      <g transform="translate(449.938399 400.173644) scale(0.1 -0.1)">
       <defs>
        <path id="DejaVuSans-38" d="M 2034 2216 
Q 1584 2216 1326 1975 
Q 1069 1734 1069 1313 
Q 1069 891 1326 650 
Q 1584 409 2034 409 
Q 2484 409 2743 651 
Q 3003 894 3003 1313 
Q 3003 1734 2745 1975 
Q 2488 2216 2034 2216 
z
M 1403 2484 
Q 997 2584 770 2862 
Q 544 3141 544 3541 
Q 544 4100 942 4425 
Q 1341 4750 2034 4750 
Q 2731 4750 3128 4425 
Q 3525 4100 3525 3541 
Q 3525 3141 3298 2862 
Q 3072 2584 2669 2484 
Q 3125 2378 3379 2068 
Q 3634 1759 3634 1313 
Q 3634 634 3220 271 
Q 2806 -91 2034 -91 
Q 1263 -91 848 271 
Q 434 634 434 1313 
Q 434 1759 690 2068 
Q 947 2378 1403 2484 
z
M 1172 3481 
Q 1172 3119 1398 2916 
Q 1625 2713 2034 2713 
Q 2441 2713 2670 2916 
Q 2900 3119 2900 3481 
Q 2900 3844 2670 4047 
Q 2441 4250 2034 4250 
Q 1625 4250 1398 4047 
Q 1172 3844 1172 3481 
z
" transform="scale(0.015625)"/>
       </defs>
       <use xlink:href="#DejaVuSans-38"/>
       <use xlink:href="#DejaVuSans-30" transform="translate(63.623047 0)"/>
      </g>
     </g>
    </g>
    <g id="xtick_6">
     <g id="line2d_11">
      <path d="M 550.425595 385.575207 
L 550.425595 55.714487 
" clip-path="url(#p8b4cdcb7bf)" style="fill: none; stroke: #b0b0b0; stroke-opacity: 0.3; stroke-width: 0.8; stroke-linecap: square"/>
     </g>
     <g id="line2d_12">
      <g>
       <use xlink:href="#mbda22af888" x="550.425595" y="385.575207" style="stroke: #000000; stroke-width: 0.8"/>
      </g>
     </g>
     <g id="text_6">
      <!-- 100 -->
      <g transform="translate(540.881845 400.173644) scale(0.1 -0.1)">
       <defs>
        <path id="DejaVuSans-31" d="M 794 531 
L 1825 531 
L 1825 4091 
L 703 3866 
L 703 4441 
L 1819 4666 
L 2450 4666 
L 2450 531 
L 3481 531 
L 3481 0 
L 794 0 
L 794 531 
z
" transform="scale(0.015625)"/>
       </defs>
       <use xlink:href="#DejaVuSans-31"/>
       <use xlink:href="#DejaVuSans-30" transform="translate(63.623047 0)"/>
       <use xlink:href="#DejaVuSans-30" transform="translate(127.246094 0)"/>
      </g>
     </g>
    </g>
    <g id="text_7">
     <!-- Optimization Step -->
     <g transform="translate(267.802143 413.851769) scale(0.1 -0.1)">
      <defs>
       <path id="DejaVuSans-4f" d="M 2522 4238 
Q 1834 4238 1429 3725 
Q 1025 3213 1025 2328 
Q 1025 1447 1429 934 
Q 1834 422 2522 422 
Q 3209 422 3611 934 
Q 4013 1447 4013 2328 
Q 4013 3213 3611 3725 
Q 3209 4238 2522 4238 
z
M 2522 4750 
Q 3503 4750 4090 4092 
Q 4678 3434 4678 2328 
Q 4678 1225 4090 567 
Q 3503 -91 2522 -91 
Q 1538 -91 948 565 
Q 359 1222 359 2328 
Q 359 3434 948 4092 
Q 1538 4750 2522 4750 
z
" transform="scale(0.015625)"/>
       <path id="DejaVuSans-70" d="M 1159 525 
L 1159 -1331 
L 581 -1331 
L 581 3500 
L 1159 3500 
L 1159 2969 
Q 1341 3281 1617 3432 
Q 1894 3584 2278 3584 
Q 2916 3584 3314 3078 
Q 3713 2572 3713 1747 
Q 3713 922 3314 415 
Q 2916 -91 2278 -91 
Q 1894 -91 1617 61 
Q 1341 213 1159 525 
z
M 3116 1747 
Q 3116 2381 2855 2742 
Q 2594 3103 2138 3103 
Q 1681 3103 1420 2742 
Q 1159 2381 1159 1747 
Q 1159 1113 1420 752 
Q 1681 391 2138 391 
Q 2594 391 2855 752 
Q 3116 1113 3116 1747 
z
" transform="scale(0.015625)"/>
       <path id="DejaVuSans-74" d="M 1172 4494 
L 1172 3500 
L 2356 3500 
L 2356 3053 
L 1172 3053 
L 1172 1153 
Q 1172 725 1289 603 
Q 1406 481 1766 481 
L 2356 481 
L 2356 0 
L 1766 0 
Q 1100 0 847 248 
Q 594 497 594 1153 
L 594 3053 
L 172 3053 
L 172 3500 
L 594 3500 
L 594 4494 
L 1172 4494 
z
" transform="scale(0.015625)"/>
       <path id="DejaVuSans-69" d="M 603 3500 
L 1178 3500 
L 1178 0 
L 603 0 
L 603 3500 
z
M 603 4863 
L 1178 4863 
L 1178 4134 
L 603 4134 
L 603 4863 
z
" transform="scale(0.015625)"/>
       <path id="DejaVuSans-6d" d="M 3328 2828 
Q 3544 3216 3844 3400 
Q 4144 3584 4550 3584 
Q 5097 3584 5394 3201 
Q 5691 2819 5691 2113 
L 5691 0 
L 5113 0 
L 5113 2094 
Q 5113 2597 4934 2840 
Q 4756 3084 4391 3084 
Q 3944 3084 3684 2787 
Q 3425 2491 3425 1978 
L 3425 0 
L 2847 0 
L 2847 2094 
Q 2847 2600 2669 2842 
Q 2491 3084 2119 3084 
Q 1678 3084 1418 2786 
Q 1159 2488 1159 1978 
L 1159 0 
L 581 0 
L 581 3500 
L 1159 3500 
L 1159 2956 
Q 1356 3278 1631 3431 
Q 1906 3584 2284 3584 
Q 2666 3584 2933 3390 
Q 3200 3197 3328 2828 
z
" transform="scale(0.015625)"/>
       <path id="DejaVuSans-7a" d="M 353 3500 
L 3084 3500 
L 3084 2975 
L 922 459 
L 3084 459 
L 3084 0 
L 275 0 
L 275 525 
L 2438 3041 
L 353 3041 
L 353 3500 
z
" transform="scale(0.015625)"/>
       <path id="DejaVuSans-61" d="M 2194 1759 
Q 1497 1759 1228 1600 
Q 959 1441 959 1056 
Q 959 750 1161 570 
Q 1363 391 1709 391 
Q 2188 391 2477 730 
Q 2766 1069 2766 1631 
L 2766 1759 
L 2194 1759 
z
M 3341 1997 
L 3341 0 
L 2766 0 
L 2766 531 
Q 2569 213 2275 61 
Q 1981 -91 1556 -91 
Q 1019 -91 701 211 
Q 384 513 384 1019 
Q 384 1609 779 1909 
Q 1175 2209 1959 2209 
L 2766 2209 
L 2766 2266 
Q 2766 2663 2505 2880 
Q 2244 3097 1772 3097 
Q 1472 3097 1187 3025 
Q 903 2953 641 2809 
L 641 3341 
Q 956 3463 1253 3523 
Q 1550 3584 1831 3584 
Q 2591 3584 2966 3190 
Q 3341 2797 3341 1997 
z
" transform="scale(0.015625)"/>
       <path id="DejaVuSans-6f" d="M 1959 3097 
Q 1497 3097 1228 2736 
Q 959 2375 959 1747 
Q 959 1119 1226 758 
Q 1494 397 1959 397 
Q 2419 397 2687 759 
Q 2956 1122 2956 1747 
Q 2956 2369 2687 2733 
Q 2419 3097 1959 3097 
z
M 1959 3584 
Q 2709 3584 3137 3096 
Q 3566 2609 3566 1747 
Q 3566 888 3137 398 
Q 2709 -91 1959 -91 
Q 1206 -91 779 398 
Q 353 888 353 1747 
Q 353 2609 779 3096 
Q 1206 3584 1959 3584 
z
" transform="scale(0.015625)"/>
       <path id="DejaVuSans-6e" d="M 3513 2113 
L 3513 0 
L 2938 0 
L 2938 2094 
Q 2938 2591 2744 2837 
Q 2550 3084 2163 3084 
Q 1697 3084 1428 2787 
Q 1159 2491 1159 1978 
L 1159 0 
L 581 0 
L 581 3500 
L 1159 3500 
L 1159 2956 
Q 1366 3272 1645 3428 
Q 1925 3584 2291 3584 
Q 2894 3584 3203 3211 
Q 3513 2838 3513 2113 
z
" transform="scale(0.015625)"/>
       <path id="DejaVuSans-20" transform="scale(0.015625)"/>
       <path id="DejaVuSans-53" d="M 3425 4513 
L 3425 3897 
Q 3066 4069 2747 4153 
Q 2428 4238 2131 4238 
Q 1616 4238 1336 4038 
Q 1056 3838 1056 3469 
Q 1056 3159 1242 3001 
Q 1428 2844 1947 2747 
L 2328 2669 
Q 3034 2534 3370 2195 
Q 3706 1856 3706 1288 
Q 3706 609 3251 259 
Q 2797 -91 1919 -91 
Q 1588 -91 1214 -16 
Q 841 59 441 206 
L 441 856 
Q 825 641 1194 531 
Q 1563 422 1919 422 
Q 2459 422 2753 634 
Q 3047 847 3047 1241 
Q 3047 1584 2836 1778 
Q 2625 1972 2144 2069 
L 1759 2144 
Q 1053 2284 737 2584 
Q 422 2884 422 3419 
Q 422 4038 858 4394 
Q 1294 4750 2059 4750 
Q 2388 4750 2728 4690 
Q 3069 4631 3425 4513 
z
" transform="scale(0.015625)"/>
       <path id="DejaVuSans-65" d="M 3597 1894 
L 3597 1613 
L 953 1613 
Q 991 1019 1311 708 
Q 1631 397 2203 397 
Q 2534 397 2845 478 
Q 3156 559 3463 722 
L 3463 178 
Q 3153 47 2828 -22 
Q 2503 -91 2169 -91 
Q 1331 -91 842 396 
Q 353 884 353 1716 
Q 353 2575 817 3079 
Q 1281 3584 2069 3584 
Q 2775 3584 3186 3129 
Q 3597 2675 3597 1894 
z
M 3022 2063 
Q 3016 2534 2758 2815 
Q 2500 3097 2075 3097 
Q 1594 3097 1305 2825 
Q 1016 2553 972 2059 
L 3022 2063 
z
" transform="scale(0.015625)"/>
      </defs>
      <use xlink:href="#DejaVuSans-4f"/>
      <use xlink:href="#DejaVuSans-70" transform="translate(78.710938 0)"/>
      <use xlink:href="#DejaVuSans-74" transform="translate(142.1875 0)"/>
      <use xlink:href="#DejaVuSans-69" transform="translate(181.396484 0)"/>
      <use xlink:href="#DejaVuSans-6d" transform="translate(209.179688 0)"/>
      <use xlink:href="#DejaVuSans-69" transform="translate(306.591797 0)"/>
      <use xlink:href="#DejaVuSans-7a" transform="translate(334.375 0)"/>
      <use xlink:href="#DejaVuSans-61" transform="translate(386.865234 0)"/>
      <use xlink:href="#DejaVuSans-74" transform="translate(448.144531 0)"/>
      <use xlink:href="#DejaVuSans-69" transform="translate(487.353516 0)"/>
      <use xlink:href="#DejaVuSans-6f" transform="translate(515.136719 0)"/>
      <use xlink:href="#DejaVuSans-6e" transform="translate(576.318359 0)"/>
      <use xlink:href="#DejaVuSans-20" transform="translate(639.697266 0)"/>
      <use xlink:href="#DejaVuSans-53" transform="translate(671.484375 0)"/>
      <use xlink:href="#DejaVuSans-74" transform="translate(734.960938 0)"/>
      <use xlink:href="#DejaVuSans-65" transform="translate(774.169922 0)"/>
      <use xlink:href="#DejaVuSans-70" transform="translate(835.693359 0)"/>
     </g>
    </g>
   </g>
   <g id="matplotlib.axis_2">
    <g id="ytick_1">
     <g id="line2d_13">
      <path d="M 56.50625 347.90914 
L 569.015223 347.90914 
" clip-path="url(#p8b4cdcb7bf)" style="fill: none; stroke: #b0b0b0; stroke-opacity: 0.3; stroke-width: 0.8; stroke-linecap: square"/>
     </g>
     <g id="line2d_14">
      <defs>
       <path id="mf7015d32ce" d="M 0 0 
L -3.5 0 
" style="stroke: #000000; stroke-width: 0.8"/>
      </defs>
      <g>
       <use xlink:href="#mf7015d32ce" x="56.50625" y="347.90914" style="stroke: #000000; stroke-width: 0.8"/>
      </g>
     </g>
     <g id="text_8">
      <!-- 0.006 -->
      <g transform="translate(20.878125 351.708359) scale(0.1 -0.1)">
       <defs>
        <path id="DejaVuSans-2e" d="M 684 794 
L 1344 794 
L 1344 0 
L 684 0 
L 684 794 
z
" transform="scale(0.015625)"/>
       </defs>
       <use xlink:href="#DejaVuSans-30"/>
       <use xlink:href="#DejaVuSans-2e" transform="translate(63.623047 0)"/>
       <use xlink:href="#DejaVuSans-30" transform="translate(95.410156 0)"/>
       <use xlink:href="#DejaVuSans-30" transform="translate(159.033203 0)"/>
       <use xlink:href="#DejaVuSans-36" transform="translate(222.65625 0)"/>
      </g>
     </g>
    </g>
    <g id="ytick_2">
     <g id="line2d_15">
      <path d="M 56.50625 298.95047 
L 569.015223 298.95047 
" clip-path="url(#p8b4cdcb7bf)" style="fill: none; stroke: #b0b0b0; stroke-opacity: 0.3; stroke-width: 0.8; stroke-linecap: square"/>
     </g>
     <g id="line2d_16">
      <g>
       <use xlink:href="#mf7015d32ce" x="56.50625" y="298.95047" style="stroke: #000000; stroke-width: 0.8"/>
      </g>
     </g>
     <g id="text_9">
      <!-- 0.008 -->
      <g transform="translate(20.878125 302.749689) scale(0.1 -0.1)">
       <use xlink:href="#DejaVuSans-30"/>
       <use xlink:href="#DejaVuSans-2e" transform="translate(63.623047 0)"/>
       <use xlink:href="#DejaVuSans-30" transform="translate(95.410156 0)"/>
       <use xlink:href="#DejaVuSans-30" transform="translate(159.033203 0)"/>
       <use xlink:href="#DejaVuSans-38" transform="translate(222.65625 0)"/>
      </g>
     </g>
    </g>
    <g id="ytick_3">
     <g id="line2d_17">
      <path d="M 56.50625 249.991801 
L 569.015223 249.991801 
" clip-path="url(#p8b4cdcb7bf)" style="fill: none; stroke: #b0b0b0; stroke-opacity: 0.3; stroke-width: 0.8; stroke-linecap: square"/>
     </g>
     <g id="line2d_18">
      <g>
       <use xlink:href="#mf7015d32ce" x="56.50625" y="249.991801" style="stroke: #000000; stroke-width: 0.8"/>
      </g>
     </g>
     <g id="text_10">
      <!-- 0.010 -->
      <g transform="translate(20.878125 253.791019) scale(0.1 -0.1)">
       <use xlink:href="#DejaVuSans-30"/>
       <use xlink:href="#DejaVuSans-2e" transform="translate(63.623047 0)"/>
       <use xlink:href="#DejaVuSans-30" transform="translate(95.410156 0)"/>
       <use xlink:href="#DejaVuSans-31" transform="translate(159.033203 0)"/>
       <use xlink:href="#DejaVuSans-30" transform="translate(222.65625 0)"/>
      </g>
     </g>
    </g>
    <g id="ytick_4">
     <g id="line2d_19">
      <path d="M 56.50625 201.033131 
L 569.015223 201.033131 
" clip-path="url(#p8b4cdcb7bf)" style="fill: none; stroke: #b0b0b0; stroke-opacity: 0.3; stroke-width: 0.8; stroke-linecap: square"/>
     </g>
     <g id="line2d_20">
      <g>
       <use xlink:href="#mf7015d32ce" x="56.50625" y="201.033131" style="stroke: #000000; stroke-width: 0.8"/>
      </g>
     </g>
     <g id="text_11">
      <!-- 0.012 -->
      <g transform="translate(20.878125 204.83235) scale(0.1 -0.1)">
       <use xlink:href="#DejaVuSans-30"/>
       <use xlink:href="#DejaVuSans-2e" transform="translate(63.623047 0)"/>
       <use xlink:href="#DejaVuSans-30" transform="translate(95.410156 0)"/>
       <use xlink:href="#DejaVuSans-31" transform="translate(159.033203 0)"/>
       <use xlink:href="#DejaVuSans-32" transform="translate(222.65625 0)"/>
      </g>
     </g>
    </g>
    <g id="ytick_5">
     <g id="line2d_21">
      <path d="M 56.50625 152.074461 
L 569.015223 152.074461 
" clip-path="url(#p8b4cdcb7bf)" style="fill: none; stroke: #b0b0b0; stroke-opacity: 0.3; stroke-width: 0.8; stroke-linecap: square"/>
     </g>
     <g id="line2d_22">
      <g>
       <use xlink:href="#mf7015d32ce" x="56.50625" y="152.074461" style="stroke: #000000; stroke-width: 0.8"/>
      </g>
     </g>
     <g id="text_12">
      <!-- 0.014 -->
      <g transform="translate(20.878125 155.87368) scale(0.1 -0.1)">
       <use xlink:href="#DejaVuSans-30"/>
       <use xlink:href="#DejaVuSans-2e" transform="translate(63.623047 0)"/>
       <use xlink:href="#DejaVuSans-30" transform="translate(95.410156 0)"/>
       <use xlink:href="#DejaVuSans-31" transform="translate(159.033203 0)"/>
       <use xlink:href="#DejaVuSans-34" transform="translate(222.65625 0)"/>
      </g>
     </g>
    </g>
    <g id="ytick_6">
     <g id="line2d_23">
      <path d="M 56.50625 103.115791 
L 569.015223 103.115791 
" clip-path="url(#p8b4cdcb7bf)" style="fill: none; stroke: #b0b0b0; stroke-opacity: 0.3; stroke-width: 0.8; stroke-linecap: square"/>
     </g>
     <g id="line2d_24">
      <g>
       <use xlink:href="#mf7015d32ce" x="56.50625" y="103.115791" style="stroke: #000000; stroke-width: 0.8"/>
      </g>
     </g>
     <g id="text_13">
      <!-- 0.016 -->
      <g transform="translate(20.878125 106.91501) scale(0.1 -0.1)">
       <use xlink:href="#DejaVuSans-30"/>
       <use xlink:href="#DejaVuSans-2e" transform="translate(63.623047 0)"/>
       <use xlink:href="#DejaVuSans-30" transform="translate(95.410156 0)"/>
       <use xlink:href="#DejaVuSans-31" transform="translate(159.033203 0)"/>
       <use xlink:href="#DejaVuSans-36" transform="translate(222.65625 0)"/>
      </g>
     </g>
    </g>
    <g id="text_14">
     <!-- Step Size (Learning Rate) -->
     <g transform="translate(14.798438 284.133128) rotate(-90) scale(0.1 -0.1)">
      <defs>
       <path id="DejaVuSans-28" d="M 1984 4856 
Q 1566 4138 1362 3434 
Q 1159 2731 1159 2009 
Q 1159 1288 1364 580 
Q 1569 -128 1984 -844 
L 1484 -844 
Q 1016 -109 783 600 
Q 550 1309 550 2009 
Q 550 2706 781 3412 
Q 1013 4119 1484 4856 
L 1984 4856 
z
" transform="scale(0.015625)"/>
       <path id="DejaVuSans-4c" d="M 628 4666 
L 1259 4666 
L 1259 531 
L 3531 531 
L 3531 0 
L 628 0 
L 628 4666 
z
" transform="scale(0.015625)"/>
       <path id="DejaVuSans-72" d="M 2631 2963 
Q 2534 3019 2420 3045 
Q 2306 3072 2169 3072 
Q 1681 3072 1420 2755 
Q 1159 2438 1159 1844 
L 1159 0 
L 581 0 
L 581 3500 
L 1159 3500 
L 1159 2956 
Q 1341 3275 1631 3429 
Q 1922 3584 2338 3584 
Q 2397 3584 2469 3576 
Q 2541 3569 2628 3553 
L 2631 2963 
z
" transform="scale(0.015625)"/>
       <path id="DejaVuSans-67" d="M 2906 1791 
Q 2906 2416 2648 2759 
Q 2391 3103 1925 3103 
Q 1463 3103 1205 2759 
Q 947 2416 947 1791 
Q 947 1169 1205 825 
Q 1463 481 1925 481 
Q 2391 481 2648 825 
Q 2906 1169 2906 1791 
z
M 3481 434 
Q 3481 -459 3084 -895 
Q 2688 -1331 1869 -1331 
Q 1566 -1331 1297 -1286 
Q 1028 -1241 775 -1147 
L 775 -588 
Q 1028 -725 1275 -790 
Q 1522 -856 1778 -856 
Q 2344 -856 2625 -561 
Q 2906 -266 2906 331 
L 2906 616 
Q 2728 306 2450 153 
Q 2172 0 1784 0 
Q 1141 0 747 490 
Q 353 981 353 1791 
Q 353 2603 747 3093 
Q 1141 3584 1784 3584 
Q 2172 3584 2450 3431 
Q 2728 3278 2906 2969 
L 2906 3500 
L 3481 3500 
L 3481 434 
z
" transform="scale(0.015625)"/>
       <path id="DejaVuSans-52" d="M 2841 2188 
Q 3044 2119 3236 1894 
Q 3428 1669 3622 1275 
L 4263 0 
L 3584 0 
L 2988 1197 
Q 2756 1666 2539 1819 
Q 2322 1972 1947 1972 
L 1259 1972 
L 1259 0 
L 628 0 
L 628 4666 
L 2053 4666 
Q 2853 4666 3247 4331 
Q 3641 3997 3641 3322 
Q 3641 2881 3436 2590 
Q 3231 2300 2841 2188 
z
M 1259 4147 
L 1259 2491 
L 2053 2491 
Q 2509 2491 2742 2702 
Q 2975 2913 2975 3322 
Q 2975 3731 2742 3939 
Q 2509 4147 2053 4147 
L 1259 4147 
z
" transform="scale(0.015625)"/>
       <path id="DejaVuSans-29" d="M 513 4856 
L 1013 4856 
Q 1481 4119 1714 3412 
Q 1947 2706 1947 2009 
Q 1947 1309 1714 600 
Q 1481 -109 1013 -844 
L 513 -844 
Q 928 -128 1133 580 
Q 1338 1288 1338 2009 
Q 1338 2731 1133 3434 
Q 928 4138 513 4856 
z
" transform="scale(0.015625)"/>
      </defs>
      <use xlink:href="#DejaVuSans-53"/>
      <use xlink:href="#DejaVuSans-74" transform="translate(63.476562 0)"/>
      <use xlink:href="#DejaVuSans-65" transform="translate(102.685547 0)"/>
      <use xlink:href="#DejaVuSans-70" transform="translate(164.208984 0)"/>
      <use xlink:href="#DejaVuSans-20" transform="translate(227.685547 0)"/>
      <use xlink:href="#DejaVuSans-53" transform="translate(259.472656 0)"/>
      <use xlink:href="#DejaVuSans-69" transform="translate(322.949219 0)"/>
      <use xlink:href="#DejaVuSans-7a" transform="translate(350.732422 0)"/>
      <use xlink:href="#DejaVuSans-65" transform="translate(403.222656 0)"/>
      <use xlink:href="#DejaVuSans-20" transform="translate(464.746094 0)"/>
      <use xlink:href="#DejaVuSans-28" transform="translate(496.533203 0)"/>
      <use xlink:href="#DejaVuSans-4c" transform="translate(535.546875 0)"/>
      <use xlink:href="#DejaVuSans-65" transform="translate(589.509766 0)"/>
      <use xlink:href="#DejaVuSans-61" transform="translate(651.033203 0)"/>
      <use xlink:href="#DejaVuSans-72" transform="translate(712.3125 0)"/>
      <use xlink:href="#DejaVuSans-6e" transform="translate(751.675781 0)"/>
      <use xlink:href="#DejaVuSans-69" transform="translate(815.054688 0)"/>
      <use xlink:href="#DejaVuSans-6e" transform="translate(842.837891 0)"/>
      <use xlink:href="#DejaVuSans-67" transform="translate(906.216797 0)"/>
      <use xlink:href="#DejaVuSans-20" transform="translate(969.693359 0)"/>
      <use xlink:href="#DejaVuSans-52" transform="translate(1001.480469 0)"/>
      <use xlink:href="#DejaVuSans-61" transform="translate(1068.712891 0)"/>
      <use xlink:href="#DejaVuSans-74" transform="translate(1129.992188 0)"/>
      <use xlink:href="#DejaVuSans-65" transform="translate(1169.201172 0)"/>
      <use xlink:href="#DejaVuSans-29" transform="translate(1230.724609 0)"/>
     </g>
    </g>
   </g>
   <g id="line2d_25">
    <path d="M 79.802112 249.991801 
L 84.508347 249.991801 
L 89.214582 249.991801 
L 93.920817 249.991801 
L 98.627052 249.991801 
L 103.333287 249.991801 
L 108.039521 249.991801 
L 112.745756 249.991801 
L 117.451991 249.991801 
L 122.158226 249.991801 
L 126.864461 249.991801 
L 131.570696 249.991801 
L 136.27693 249.991801 
L 140.983165 249.991801 
L 145.6894 249.991801 
L 150.395635 249.991801 
L 155.10187 249.991801 
L 159.808105 249.991801 
L 164.514339 249.991801 
L 169.220574 249.991801 
L 173.926809 249.991801 
L 178.633044 249.991801 
L 183.339279 249.991801 
L 188.045514 249.991801 
L 192.751748 249.991801 
L 197.457983 249.991801 
L 202.164218 249.991801 
L 206.870453 249.991801 
L 211.576688 249.991801 
L 216.282922 249.991801 
L 220.989157 249.991801 
L 225.695392 249.991801 
L 230.401627 249.991801 
L 235.107862 249.991801 
L 239.814097 249.991801 
L 244.520331 249.991801 
L 249.226566 249.991801 
L 253.932801 249.991801 
L 258.639036 249.991801 
L 263.345271 249.991801 
L 268.051506 249.991801 
L 272.75774 249.991801 
L 277.463975 249.991801 
L 282.17021 249.991801 
L 286.876445 249.991801 
L 291.58268 249.991801 
L 296.288915 249.991801 
L 300.995149 249.991801 
L 305.701384 249.991801 
L 310.407619 249.991801 
L 315.113854 249.991801 
L 319.820089 249.991801 
L 324.526324 249.991801 
L 329.232558 249.991801 
L 333.938793 249.991801 
L 338.645028 249.991801 
L 343.351263 249.991801 
L 348.057498 249.991801 
L 352.763733 249.991801 
L 357.469967 249.991801 
L 362.176202 249.991801 
L 366.882437 249.991801 
L 371.588672 249.991801 
L 376.294907 249.991801 
L 381.001142 249.991801 
L 385.707376 249.991801 
L 390.413611 249.991801 
L 395.119846 249.991801 
L 399.826081 249.991801 
L 404.532316 249.991801 
L 409.238551 249.991801 
L 413.944785 249.991801 
L 418.65102 249.991801 
L 423.357255 249.991801 
L 428.06349 249.991801 
L 432.769725 249.991801 
L 437.47596 249.991801 
L 442.182194 249.991801 
L 446.888429 249.991801 
L 451.594664 249.991801 
L 456.300899 249.991801 
L 461.007134 249.991801 
L 465.713369 249.991801 
L 470.419603 249.991801 
L 475.125838 249.991801 
L 479.832073 249.991801 
L 484.538308 249.991801 
L 489.244543 249.991801 
L 493.950777 249.991801 
L 498.657012 249.991801 
L 503.363247 249.991801 
L 508.069482 249.991801 
L 512.775717 249.991801 
L 517.481952 249.991801 
L 522.188186 249.991801 
L 526.894421 249.991801 
L 531.600656 249.991801 
L 536.306891 249.991801 
L 541.013126 249.991801 
L 545.719361 249.991801 
" clip-path="url(#p8b4cdcb7bf)" style="fill: none; stroke: #ff0000; stroke-opacity: 0.8; stroke-width: 3; stroke-linecap: square"/>
   </g>
   <g id="line2d_26">
    <path d="M 79.802112 176.553796 
L 84.508347 143.964719 
L 89.214582 114.431985 
L 93.920817 90.906516 
L 98.627052 75.787363 
L 103.333287 70.708156 
L 108.039521 76.391877 
L 112.745756 92.586958 
L 117.451991 118.090387 
L 122.158226 150.855786 
L 126.864461 188.17678 
L 131.570696 226.929306 
L 136.27693 263.8512 
L 140.983165 295.834091 
L 145.6894 320.201543 
L 150.395635 334.948579 
L 155.10187 338.921213 
L 159.808105 331.919939 
L 164.514339 314.717939 
L 169.220574 288.992391 
L 173.926809 257.174996 
L 178.633044 222.235105 
L 183.339279 187.414786 
L 188.045514 155.939525 
L 192.751748 130.730392 
L 197.457983 114.143382 
L 202.164218 107.759225 
L 206.870453 112.242426 
L 211.576688 127.282147 
L 216.282922 151.620198 
L 220.989157 183.163635 
L 225.695392 219.171925 
L 230.401627 256.501942 
L 235.107862 291.88891 
L 239.814097 322.238221 
L 244.520331 344.902024 
L 249.226566 357.915912 
L 253.932801 360.174546 
L 258.639036 351.530534 
L 263.345271 332.807733 
L 268.051506 305.727788 
L 272.75774 272.756462 
L 277.463975 236.883496 
L 282.17021 201.355654 
L 286.876445 169.386809 
L 291.58268 143.870951 
L 296.288915 127.12378 
L 300.995149 120.675934 
L 305.701384 125.136355 
L 310.407619 140.137972 
L 315.113854 164.370573 
L 319.820089 195.697912 
L 324.526324 231.348609 
L 329.232558 268.163772 
L 333.938793 302.879242 
L 338.645028 332.417225 
L 343.351263 354.161284 
L 348.057498 366.190113 
L 352.763733 367.449212 
L 357.469967 357.845134 
L 362.176202 338.253879 
L 366.882437 310.44269 
L 371.588672 276.912232 
L 376.294907 240.673257 
L 381.001142 204.9777 
L 385.707376 173.028234 
L 390.413611 147.692215 
L 395.119846 131.245587 
L 399.826081 125.169608 
L 404.532316 130.018567 
L 409.238551 145.370297 
L 413.944785 169.863915 
L 418.65102 201.321409 
L 423.357255 236.942223 
L 428.06349 273.553443 
L 432.769725 307.893244 
L 437.47596 336.902288 
L 442.182194 357.997016 
L 446.888429 369.300457 
L 451.594664 369.809908 
L 456.300899 359.486517 
L 461.007134 339.258775 
L 465.713369 310.93959 
L 470.419603 277.064361 
L 475.125838 240.664511 
L 479.832073 204.996715 
L 484.538308 173.252004 
L 489.244543 148.270729 
L 493.950777 132.288855 
L 498.657012 126.738242 
L 503.363247 132.118745 
L 508.069482 147.953583 
L 512.775717 172.831929 
L 517.481952 204.534951 
L 522.188186 240.234018 
L 526.894421 276.743384 
L 531.600656 310.804766 
L 536.306891 339.378409 
L 541.013126 359.914621 
L 545.719361 370.581538 
" clip-path="url(#p8b4cdcb7bf)" style="fill: none; stroke: #008000; stroke-opacity: 0.8; stroke-width: 3; stroke-linecap: square"/>
   </g>
   <g id="patch_3">
    <path d="M 56.50625 385.575207 
L 56.50625 55.714487 
" style="fill: none; stroke: #000000; stroke-width: 0.8; stroke-linejoin: miter; stroke-linecap: square"/>
   </g>
   <g id="patch_4">
    <path d="M 569.015223 385.575207 
L 569.015223 55.714487 
" style="fill: none; stroke: #000000; stroke-width: 0.8; stroke-linejoin: miter; stroke-linecap: square"/>
   </g>
   <g id="patch_5">
    <path d="M 56.50625 385.575207 
L 569.015223 385.575207 
" style="fill: none; stroke: #000000; stroke-width: 0.8; stroke-linejoin: miter; stroke-linecap: square"/>
   </g>
   <g id="patch_6">
    <path d="M 56.50625 55.714487 
L 569.015223 55.714487 
" style="fill: none; stroke: #000000; stroke-width: 0.8; stroke-linejoin: miter; stroke-linecap: square"/>
   </g>
   <g id="patch_7">
    <path d="M 274.171427 109.116888 
Q 294.363385 178.593482 314.24332 246.996464 
" style="fill: none; opacity: 0.7; stroke: #ff0000; stroke-linecap: round"/>
    <path d="M 315.047526 242.597231 
L 314.24332 246.996464 
L 311.206457 243.71356 
" style="fill: none; opacity: 0.7; stroke: #ff0000; stroke-linecap: round"/>
   </g>
   <g id="text_15">
    <!-- Fixed throughout -->
    <g style="fill: #ff0000" transform="translate(220.989157 91.839854) scale(0.1 -0.1)">
     <defs>
      <path id="DejaVuSans-Bold-46" d="M 588 4666 
L 3834 4666 
L 3834 3756 
L 1791 3756 
L 1791 2888 
L 3713 2888 
L 3713 1978 
L 1791 1978 
L 1791 0 
L 588 0 
L 588 4666 
z
" transform="scale(0.015625)"/>
      <path id="DejaVuSans-Bold-69" d="M 538 3500 
L 1656 3500 
L 1656 0 
L 538 0 
L 538 3500 
z
M 538 4863 
L 1656 4863 
L 1656 3950 
L 538 3950 
L 538 4863 
z
" transform="scale(0.015625)"/>
      <path id="DejaVuSans-Bold-78" d="M 1422 1791 
L 159 3500 
L 1344 3500 
L 2059 2463 
L 2784 3500 
L 3969 3500 
L 2706 1797 
L 4031 0 
L 2847 0 
L 2059 1106 
L 1281 0 
L 97 0 
L 1422 1791 
z
" transform="scale(0.015625)"/>
      <path id="DejaVuSans-Bold-65" d="M 4031 1759 
L 4031 1441 
L 1416 1441 
Q 1456 1047 1700 850 
Q 1944 653 2381 653 
Q 2734 653 3104 758 
Q 3475 863 3866 1075 
L 3866 213 
Q 3469 63 3072 -14 
Q 2675 -91 2278 -91 
Q 1328 -91 801 392 
Q 275 875 275 1747 
Q 275 2603 792 3093 
Q 1309 3584 2216 3584 
Q 3041 3584 3536 3087 
Q 4031 2591 4031 1759 
z
M 2881 2131 
Q 2881 2450 2695 2645 
Q 2509 2841 2209 2841 
Q 1884 2841 1681 2658 
Q 1478 2475 1428 2131 
L 2881 2131 
z
" transform="scale(0.015625)"/>
      <path id="DejaVuSans-Bold-64" d="M 2919 2988 
L 2919 4863 
L 4044 4863 
L 4044 0 
L 2919 0 
L 2919 506 
Q 2688 197 2409 53 
Q 2131 -91 1766 -91 
Q 1119 -91 703 423 
Q 288 938 288 1747 
Q 288 2556 703 3070 
Q 1119 3584 1766 3584 
Q 2128 3584 2408 3439 
Q 2688 3294 2919 2988 
z
M 2181 722 
Q 2541 722 2730 984 
Q 2919 1247 2919 1747 
Q 2919 2247 2730 2509 
Q 2541 2772 2181 2772 
Q 1825 2772 1636 2509 
Q 1447 2247 1447 1747 
Q 1447 1247 1636 984 
Q 1825 722 2181 722 
z
" transform="scale(0.015625)"/>
      <path id="DejaVuSans-Bold-20" transform="scale(0.015625)"/>
      <path id="DejaVuSans-Bold-74" d="M 1759 4494 
L 1759 3500 
L 2913 3500 
L 2913 2700 
L 1759 2700 
L 1759 1216 
Q 1759 972 1856 886 
Q 1953 800 2241 800 
L 2816 800 
L 2816 0 
L 1856 0 
Q 1194 0 917 276 
Q 641 553 641 1216 
L 641 2700 
L 84 2700 
L 84 3500 
L 641 3500 
L 641 4494 
L 1759 4494 
z
" transform="scale(0.015625)"/>
      <path id="DejaVuSans-Bold-68" d="M 4056 2131 
L 4056 0 
L 2931 0 
L 2931 347 
L 2931 1625 
Q 2931 2084 2911 2256 
Q 2891 2428 2841 2509 
Q 2775 2619 2662 2680 
Q 2550 2741 2406 2741 
Q 2056 2741 1856 2470 
Q 1656 2200 1656 1722 
L 1656 0 
L 538 0 
L 538 4863 
L 1656 4863 
L 1656 2988 
Q 1909 3294 2193 3439 
Q 2478 3584 2822 3584 
Q 3428 3584 3742 3212 
Q 4056 2841 4056 2131 
z
" transform="scale(0.015625)"/>
      <path id="DejaVuSans-Bold-72" d="M 3138 2547 
Q 2991 2616 2845 2648 
Q 2700 2681 2553 2681 
Q 2122 2681 1889 2404 
Q 1656 2128 1656 1613 
L 1656 0 
L 538 0 
L 538 3500 
L 1656 3500 
L 1656 2925 
Q 1872 3269 2151 3426 
Q 2431 3584 2822 3584 
Q 2878 3584 2943 3579 
Q 3009 3575 3134 3559 
L 3138 2547 
z
" transform="scale(0.015625)"/>
      <path id="DejaVuSans-Bold-6f" d="M 2203 2784 
Q 1831 2784 1636 2517 
Q 1441 2250 1441 1747 
Q 1441 1244 1636 976 
Q 1831 709 2203 709 
Q 2569 709 2762 976 
Q 2956 1244 2956 1747 
Q 2956 2250 2762 2517 
Q 2569 2784 2203 2784 
z
M 2203 3584 
Q 3106 3584 3614 3096 
Q 4122 2609 4122 1747 
Q 4122 884 3614 396 
Q 3106 -91 2203 -91 
Q 1297 -91 786 396 
Q 275 884 275 1747 
Q 275 2609 786 3096 
Q 1297 3584 2203 3584 
z
" transform="scale(0.015625)"/>
      <path id="DejaVuSans-Bold-75" d="M 500 1363 
L 500 3500 
L 1625 3500 
L 1625 3150 
Q 1625 2866 1622 2436 
Q 1619 2006 1619 1863 
Q 1619 1441 1641 1255 
Q 1663 1069 1716 984 
Q 1784 875 1895 815 
Q 2006 756 2150 756 
Q 2500 756 2700 1025 
Q 2900 1294 2900 1772 
L 2900 3500 
L 4019 3500 
L 4019 0 
L 2900 0 
L 2900 506 
Q 2647 200 2364 54 
Q 2081 -91 1741 -91 
Q 1134 -91 817 281 
Q 500 653 500 1363 
z
" transform="scale(0.015625)"/>
      <path id="DejaVuSans-Bold-67" d="M 2919 594 
Q 2688 288 2409 144 
Q 2131 0 1766 0 
Q 1125 0 706 504 
Q 288 1009 288 1791 
Q 288 2575 706 3076 
Q 1125 3578 1766 3578 
Q 2131 3578 2409 3434 
Q 2688 3291 2919 2981 
L 2919 3500 
L 4044 3500 
L 4044 353 
Q 4044 -491 3511 -936 
Q 2978 -1381 1966 -1381 
Q 1638 -1381 1331 -1331 
Q 1025 -1281 716 -1178 
L 716 -306 
Q 1009 -475 1290 -558 
Q 1572 -641 1856 -641 
Q 2406 -641 2662 -400 
Q 2919 -159 2919 353 
L 2919 594 
z
M 2181 2772 
Q 1834 2772 1640 2515 
Q 1447 2259 1447 1791 
Q 1447 1309 1634 1061 
Q 1822 813 2181 813 
Q 2531 813 2725 1069 
Q 2919 1325 2919 1791 
Q 2919 2259 2725 2515 
Q 2531 2772 2181 2772 
z
" transform="scale(0.015625)"/>
     </defs>
     <use xlink:href="#DejaVuSans-Bold-46"/>
     <use xlink:href="#DejaVuSans-Bold-69" transform="translate(68.310547 0)"/>
     <use xlink:href="#DejaVuSans-Bold-78" transform="translate(102.587891 0)"/>
     <use xlink:href="#DejaVuSans-Bold-65" transform="translate(167.089844 0)"/>
     <use xlink:href="#DejaVuSans-Bold-64" transform="translate(234.912109 0)"/>
     <use xlink:href="#DejaVuSans-Bold-20" transform="translate(306.494141 0)"/>
     <use xlink:href="#DejaVuSans-Bold-74" transform="translate(341.308594 0)"/>
     <use xlink:href="#DejaVuSans-Bold-68" transform="translate(389.111328 0)"/>
     <use xlink:href="#DejaVuSans-Bold-72" transform="translate(460.302734 0)"/>
     <use xlink:href="#DejaVuSans-Bold-6f" transform="translate(509.619141 0)"/>
     <use xlink:href="#DejaVuSans-Bold-75" transform="translate(578.320312 0)"/>
     <use xlink:href="#DejaVuSans-Bold-67" transform="translate(649.511719 0)"/>
     <use xlink:href="#DejaVuSans-Bold-68" transform="translate(721.09375 0)"/>
     <use xlink:href="#DejaVuSans-Bold-6f" transform="translate(792.285156 0)"/>
     <use xlink:href="#DejaVuSans-Bold-75" transform="translate(860.986328 0)"/>
     <use xlink:href="#DejaVuSans-Bold-74" transform="translate(932.177734 0)"/>
    </g>
    <!-- optimization -->
    <g style="fill: #ff0000" transform="translate(220.989157 103.115791) scale(0.1 -0.1)">
     <defs>
      <path id="DejaVuSans-Bold-70" d="M 1656 506 
L 1656 -1331 
L 538 -1331 
L 538 3500 
L 1656 3500 
L 1656 2988 
Q 1888 3294 2169 3439 
Q 2450 3584 2816 3584 
Q 3463 3584 3878 3070 
Q 4294 2556 4294 1747 
Q 4294 938 3878 423 
Q 3463 -91 2816 -91 
Q 2450 -91 2169 54 
Q 1888 200 1656 506 
z
M 2400 2772 
Q 2041 2772 1848 2508 
Q 1656 2244 1656 1747 
Q 1656 1250 1848 986 
Q 2041 722 2400 722 
Q 2759 722 2948 984 
Q 3138 1247 3138 1747 
Q 3138 2247 2948 2509 
Q 2759 2772 2400 2772 
z
" transform="scale(0.015625)"/>
      <path id="DejaVuSans-Bold-6d" d="M 3781 2919 
Q 3994 3244 4286 3414 
Q 4578 3584 4928 3584 
Q 5531 3584 5847 3212 
Q 6163 2841 6163 2131 
L 6163 0 
L 5038 0 
L 5038 1825 
Q 5041 1866 5042 1909 
Q 5044 1953 5044 2034 
Q 5044 2406 4934 2573 
Q 4825 2741 4581 2741 
Q 4263 2741 4089 2478 
Q 3916 2216 3909 1719 
L 3909 0 
L 2784 0 
L 2784 1825 
Q 2784 2406 2684 2573 
Q 2584 2741 2328 2741 
Q 2006 2741 1831 2477 
Q 1656 2213 1656 1722 
L 1656 0 
L 531 0 
L 531 3500 
L 1656 3500 
L 1656 2988 
Q 1863 3284 2130 3434 
Q 2397 3584 2719 3584 
Q 3081 3584 3359 3409 
Q 3638 3234 3781 2919 
z
" transform="scale(0.015625)"/>
      <path id="DejaVuSans-Bold-7a" d="M 366 3500 
L 3419 3500 
L 3419 2719 
L 1575 800 
L 3419 800 
L 3419 0 
L 288 0 
L 288 781 
L 2131 2700 
L 366 2700 
L 366 3500 
z
" transform="scale(0.015625)"/>
      <path id="DejaVuSans-Bold-61" d="M 2106 1575 
Q 1756 1575 1579 1456 
Q 1403 1338 1403 1106 
Q 1403 894 1545 773 
Q 1688 653 1941 653 
Q 2256 653 2472 879 
Q 2688 1106 2688 1447 
L 2688 1575 
L 2106 1575 
z
M 3816 1997 
L 3816 0 
L 2688 0 
L 2688 519 
Q 2463 200 2181 54 
Q 1900 -91 1497 -91 
Q 953 -91 614 226 
Q 275 544 275 1050 
Q 275 1666 698 1953 
Q 1122 2241 2028 2241 
L 2688 2241 
L 2688 2328 
Q 2688 2594 2478 2717 
Q 2269 2841 1825 2841 
Q 1466 2841 1156 2769 
Q 847 2697 581 2553 
L 581 3406 
Q 941 3494 1303 3539 
Q 1666 3584 2028 3584 
Q 2975 3584 3395 3211 
Q 3816 2838 3816 1997 
z
" transform="scale(0.015625)"/>
      <path id="DejaVuSans-Bold-6e" d="M 4056 2131 
L 4056 0 
L 2931 0 
L 2931 347 
L 2931 1631 
Q 2931 2084 2911 2256 
Q 2891 2428 2841 2509 
Q 2775 2619 2662 2680 
Q 2550 2741 2406 2741 
Q 2056 2741 1856 2470 
Q 1656 2200 1656 1722 
L 1656 0 
L 538 0 
L 538 3500 
L 1656 3500 
L 1656 2988 
Q 1909 3294 2193 3439 
Q 2478 3584 2822 3584 
Q 3428 3584 3742 3212 
Q 4056 2841 4056 2131 
z
" transform="scale(0.015625)"/>
     </defs>
     <use xlink:href="#DejaVuSans-Bold-6f"/>
     <use xlink:href="#DejaVuSans-Bold-70" transform="translate(68.701172 0)"/>
     <use xlink:href="#DejaVuSans-Bold-74" transform="translate(140.283203 0)"/>
     <use xlink:href="#DejaVuSans-Bold-69" transform="translate(188.085938 0)"/>
     <use xlink:href="#DejaVuSans-Bold-6d" transform="translate(222.363281 0)"/>
     <use xlink:href="#DejaVuSans-Bold-69" transform="translate(326.5625 0)"/>
     <use xlink:href="#DejaVuSans-Bold-7a" transform="translate(360.839844 0)"/>
     <use xlink:href="#DejaVuSans-Bold-61" transform="translate(419.042969 0)"/>
     <use xlink:href="#DejaVuSans-Bold-74" transform="translate(486.523438 0)"/>
     <use xlink:href="#DejaVuSans-Bold-69" transform="translate(534.326172 0)"/>
     <use xlink:href="#DejaVuSans-Bold-6f" transform="translate(568.603516 0)"/>
     <use xlink:href="#DejaVuSans-Bold-6e" transform="translate(637.304688 0)"/>
    </g>
   </g>
   <g id="patch_8">
    <path d="M 472.238791 59.995118 
Q 441.214518 117.394078 410.72186 173.80948 
" style="fill: none; opacity: 0.7; stroke: #008000; stroke-linecap: round"/>
    <path d="M 414.383265 171.24158 
L 410.72186 173.80948 
L 410.864383 169.339615 
" style="fill: none; opacity: 0.7; stroke: #008000; stroke-linecap: round"/>
   </g>
   <g id="text_16">
    <!-- Adapts based on -->
    <g style="fill: #008000" transform="translate(432.769725 42.959309) scale(0.1 -0.1)">
     <defs>
      <path id="DejaVuSans-Bold-41" d="M 3419 850 
L 1538 850 
L 1241 0 
L 31 0 
L 1759 4666 
L 3194 4666 
L 4922 0 
L 3713 0 
L 3419 850 
z
M 1838 1716 
L 3116 1716 
L 2478 3572 
L 1838 1716 
z
" transform="scale(0.015625)"/>
      <path id="DejaVuSans-Bold-73" d="M 3272 3391 
L 3272 2541 
Q 2913 2691 2578 2766 
Q 2244 2841 1947 2841 
Q 1628 2841 1473 2761 
Q 1319 2681 1319 2516 
Q 1319 2381 1436 2309 
Q 1553 2238 1856 2203 
L 2053 2175 
Q 2913 2066 3209 1816 
Q 3506 1566 3506 1031 
Q 3506 472 3093 190 
Q 2681 -91 1863 -91 
Q 1516 -91 1145 -36 
Q 775 19 384 128 
L 384 978 
Q 719 816 1070 734 
Q 1422 653 1784 653 
Q 2113 653 2278 743 
Q 2444 834 2444 1013 
Q 2444 1163 2330 1236 
Q 2216 1309 1875 1350 
L 1678 1375 
Q 931 1469 631 1722 
Q 331 1975 331 2491 
Q 331 3047 712 3315 
Q 1094 3584 1881 3584 
Q 2191 3584 2531 3537 
Q 2872 3491 3272 3391 
z
" transform="scale(0.015625)"/>
      <path id="DejaVuSans-Bold-62" d="M 2400 722 
Q 2759 722 2948 984 
Q 3138 1247 3138 1747 
Q 3138 2247 2948 2509 
Q 2759 2772 2400 2772 
Q 2041 2772 1848 2508 
Q 1656 2244 1656 1747 
Q 1656 1250 1848 986 
Q 2041 722 2400 722 
z
M 1656 2988 
Q 1888 3294 2169 3439 
Q 2450 3584 2816 3584 
Q 3463 3584 3878 3070 
Q 4294 2556 4294 1747 
Q 4294 938 3878 423 
Q 3463 -91 2816 -91 
Q 2450 -91 2169 54 
Q 1888 200 1656 506 
L 1656 0 
L 538 0 
L 538 4863 
L 1656 4863 
L 1656 2988 
z
" transform="scale(0.015625)"/>
     </defs>
     <use xlink:href="#DejaVuSans-Bold-41"/>
     <use xlink:href="#DejaVuSans-Bold-64" transform="translate(77.392578 0)"/>
     <use xlink:href="#DejaVuSans-Bold-61" transform="translate(148.974609 0)"/>
     <use xlink:href="#DejaVuSans-Bold-70" transform="translate(216.455078 0)"/>
     <use xlink:href="#DejaVuSans-Bold-74" transform="translate(288.037109 0)"/>
     <use xlink:href="#DejaVuSans-Bold-73" transform="translate(335.839844 0)"/>
     <use xlink:href="#DejaVuSans-Bold-20" transform="translate(395.361328 0)"/>
     <use xlink:href="#DejaVuSans-Bold-62" transform="translate(430.175781 0)"/>
     <use xlink:href="#DejaVuSans-Bold-61" transform="translate(501.757812 0)"/>
     <use xlink:href="#DejaVuSans-Bold-73" transform="translate(569.238281 0)"/>
     <use xlink:href="#DejaVuSans-Bold-65" transform="translate(628.759766 0)"/>
     <use xlink:href="#DejaVuSans-Bold-64" transform="translate(696.582031 0)"/>
     <use xlink:href="#DejaVuSans-Bold-20" transform="translate(768.164062 0)"/>
     <use xlink:href="#DejaVuSans-Bold-6f" transform="translate(802.978516 0)"/>
     <use xlink:href="#DejaVuSans-Bold-6e" transform="translate(871.679688 0)"/>
    </g>
    <!-- local landscape -->
    <g style="fill: #008000" transform="translate(432.769725 54.157122) scale(0.1 -0.1)">
     <defs>
      <path id="DejaVuSans-Bold-6c" d="M 538 4863 
L 1656 4863 
L 1656 0 
L 538 0 
L 538 4863 
z
" transform="scale(0.015625)"/>
      <path id="DejaVuSans-Bold-63" d="M 3366 3391 
L 3366 2478 
Q 3138 2634 2908 2709 
Q 2678 2784 2431 2784 
Q 1963 2784 1702 2511 
Q 1441 2238 1441 1747 
Q 1441 1256 1702 982 
Q 1963 709 2431 709 
Q 2694 709 2930 787 
Q 3166 866 3366 1019 
L 3366 103 
Q 3103 6 2833 -42 
Q 2563 -91 2291 -91 
Q 1344 -91 809 395 
Q 275 881 275 1747 
Q 275 2613 809 3098 
Q 1344 3584 2291 3584 
Q 2566 3584 2833 3536 
Q 3100 3488 3366 3391 
z
" transform="scale(0.015625)"/>
     </defs>
     <use xlink:href="#DejaVuSans-Bold-6c"/>
     <use xlink:href="#DejaVuSans-Bold-6f" transform="translate(34.277344 0)"/>
     <use xlink:href="#DejaVuSans-Bold-63" transform="translate(102.978516 0)"/>
     <use xlink:href="#DejaVuSans-Bold-61" transform="translate(162.255859 0)"/>
     <use xlink:href="#DejaVuSans-Bold-6c" transform="translate(229.736328 0)"/>
     <use xlink:href="#DejaVuSans-Bold-20" transform="translate(264.013672 0)"/>
     <use xlink:href="#DejaVuSans-Bold-6c" transform="translate(298.828125 0)"/>
     <use xlink:href="#DejaVuSans-Bold-61" transform="translate(333.105469 0)"/>
     <use xlink:href="#DejaVuSans-Bold-6e" transform="translate(400.585938 0)"/>
     <use xlink:href="#DejaVuSans-Bold-64" transform="translate(471.777344 0)"/>
     <use xlink:href="#DejaVuSans-Bold-73" transform="translate(543.359375 0)"/>
     <use xlink:href="#DejaVuSans-Bold-63" transform="translate(602.880859 0)"/>
     <use xlink:href="#DejaVuSans-Bold-61" transform="translate(662.158203 0)"/>
     <use xlink:href="#DejaVuSans-Bold-70" transform="translate(729.638672 0)"/>
     <use xlink:href="#DejaVuSans-Bold-65" transform="translate(801.220703 0)"/>
    </g>
   </g>
   <g id="text_17">
    <!-- Step Size Evolution -->
    <g transform="translate(236.403862 49.714487) scale(0.14 -0.14)">
     <defs>
      <path id="DejaVuSans-Bold-53" d="M 3834 4519 
L 3834 3531 
Q 3450 3703 3084 3790 
Q 2719 3878 2394 3878 
Q 1963 3878 1756 3759 
Q 1550 3641 1550 3391 
Q 1550 3203 1689 3098 
Q 1828 2994 2194 2919 
L 2706 2816 
Q 3484 2659 3812 2340 
Q 4141 2022 4141 1434 
Q 4141 663 3683 286 
Q 3225 -91 2284 -91 
Q 1841 -91 1394 -6 
Q 947 78 500 244 
L 500 1259 
Q 947 1022 1364 901 
Q 1781 781 2169 781 
Q 2563 781 2772 912 
Q 2981 1044 2981 1288 
Q 2981 1506 2839 1625 
Q 2697 1744 2272 1838 
L 1806 1941 
Q 1106 2091 782 2419 
Q 459 2747 459 3303 
Q 459 4000 909 4375 
Q 1359 4750 2203 4750 
Q 2588 4750 2994 4692 
Q 3400 4634 3834 4519 
z
" transform="scale(0.015625)"/>
      <path id="DejaVuSans-Bold-45" d="M 588 4666 
L 3834 4666 
L 3834 3756 
L 1791 3756 
L 1791 2888 
L 3713 2888 
L 3713 1978 
L 1791 1978 
L 1791 909 
L 3903 909 
L 3903 0 
L 588 0 
L 588 4666 
z
" transform="scale(0.015625)"/>
      <path id="DejaVuSans-Bold-76" d="M 97 3500 
L 1216 3500 
L 2088 1081 
L 2956 3500 
L 4078 3500 
L 2700 0 
L 1472 0 
L 97 3500 
z
" transform="scale(0.015625)"/>
     </defs>
     <use xlink:href="#DejaVuSans-Bold-53"/>
     <use xlink:href="#DejaVuSans-Bold-74" transform="translate(72.021484 0)"/>
     <use xlink:href="#DejaVuSans-Bold-65" transform="translate(119.824219 0)"/>
     <use xlink:href="#DejaVuSans-Bold-70" transform="translate(187.646484 0)"/>
     <use xlink:href="#DejaVuSans-Bold-20" transform="translate(259.228516 0)"/>
     <use xlink:href="#DejaVuSans-Bold-53" transform="translate(294.042969 0)"/>
     <use xlink:href="#DejaVuSans-Bold-69" transform="translate(366.064453 0)"/>
     <use xlink:href="#DejaVuSans-Bold-7a" transform="translate(400.341797 0)"/>
     <use xlink:href="#DejaVuSans-Bold-65" transform="translate(458.544922 0)"/>
     <use xlink:href="#DejaVuSans-Bold-20" transform="translate(526.367188 0)"/>
     <use xlink:href="#DejaVuSans-Bold-45" transform="translate(561.181641 0)"/>
     <use xlink:href="#DejaVuSans-Bold-76" transform="translate(629.492188 0)"/>
     <use xlink:href="#DejaVuSans-Bold-6f" transform="translate(694.677734 0)"/>
     <use xlink:href="#DejaVuSans-Bold-6c" transform="translate(763.378906 0)"/>
     <use xlink:href="#DejaVuSans-Bold-75" transform="translate(797.65625 0)"/>
     <use xlink:href="#DejaVuSans-Bold-74" transform="translate(868.847656 0)"/>
     <use xlink:href="#DejaVuSans-Bold-69" transform="translate(916.650391 0)"/>
     <use xlink:href="#DejaVuSans-Bold-6f" transform="translate(950.927734 0)"/>
     <use xlink:href="#DejaVuSans-Bold-6e" transform="translate(1019.628906 0)"/>
    </g>
   </g>
   <g id="legend_1">
    <g id="patch_9">
     <path d="M 379.318348 93.070737 
L 562.015223 93.070737 
Q 564.015223 93.070737 564.015223 91.070737 
L 564.015223 62.714487 
Q 564.015223 60.714487 562.015223 60.714487 
L 379.318348 60.714487 
Q 377.318348 60.714487 377.318348 62.714487 
L 377.318348 91.070737 
Q 377.318348 93.070737 379.318348 93.070737 
z
" style="fill: #ffffff; opacity: 0.8; stroke: #cccccc; stroke-linejoin: miter"/>
    </g>
    <g id="line2d_27">
     <path d="M 381.318348 68.812925 
L 391.318348 68.812925 
L 401.318348 68.812925 
" style="fill: none; stroke: #ff0000; stroke-opacity: 0.8; stroke-width: 3; stroke-linecap: square"/>
    </g>
    <g id="text_18">
     <!-- SGD: Fixed Step Size -->
     <g transform="translate(409.318348 72.312925) scale(0.1 -0.1)">
      <defs>
       <path id="DejaVuSans-47" d="M 3809 666 
L 3809 1919 
L 2778 1919 
L 2778 2438 
L 4434 2438 
L 4434 434 
Q 4069 175 3628 42 
Q 3188 -91 2688 -91 
Q 1594 -91 976 548 
Q 359 1188 359 2328 
Q 359 3472 976 4111 
Q 1594 4750 2688 4750 
Q 3144 4750 3555 4637 
Q 3966 4525 4313 4306 
L 4313 3634 
Q 3963 3931 3569 4081 
Q 3175 4231 2741 4231 
Q 1884 4231 1454 3753 
Q 1025 3275 1025 2328 
Q 1025 1384 1454 906 
Q 1884 428 2741 428 
Q 3075 428 3337 486 
Q 3600 544 3809 666 
z
" transform="scale(0.015625)"/>
       <path id="DejaVuSans-44" d="M 1259 4147 
L 1259 519 
L 2022 519 
Q 2988 519 3436 956 
Q 3884 1394 3884 2338 
Q 3884 3275 3436 3711 
Q 2988 4147 2022 4147 
L 1259 4147 
z
M 628 4666 
L 1925 4666 
Q 3281 4666 3915 4102 
Q 4550 3538 4550 2338 
Q 4550 1131 3912 565 
Q 3275 0 1925 0 
L 628 0 
L 628 4666 
z
" transform="scale(0.015625)"/>
       <path id="DejaVuSans-3a" d="M 750 794 
L 1409 794 
L 1409 0 
L 750 0 
L 750 794 
z
M 750 3309 
L 1409 3309 
L 1409 2516 
L 750 2516 
L 750 3309 
z
" transform="scale(0.015625)"/>
       <path id="DejaVuSans-46" d="M 628 4666 
L 3309 4666 
L 3309 4134 
L 1259 4134 
L 1259 2759 
L 3109 2759 
L 3109 2228 
L 1259 2228 
L 1259 0 
L 628 0 
L 628 4666 
z
" transform="scale(0.015625)"/>
       <path id="DejaVuSans-78" d="M 3513 3500 
L 2247 1797 
L 3578 0 
L 2900 0 
L 1881 1375 
L 863 0 
L 184 0 
L 1544 1831 
L 300 3500 
L 978 3500 
L 1906 2253 
L 2834 3500 
L 3513 3500 
z
" transform="scale(0.015625)"/>
       <path id="DejaVuSans-64" d="M 2906 2969 
L 2906 4863 
L 3481 4863 
L 3481 0 
L 2906 0 
L 2906 525 
Q 2725 213 2448 61 
Q 2172 -91 1784 -91 
Q 1150 -91 751 415 
Q 353 922 353 1747 
Q 353 2572 751 3078 
Q 1150 3584 1784 3584 
Q 2172 3584 2448 3432 
Q 2725 3281 2906 2969 
z
M 947 1747 
Q 947 1113 1208 752 
Q 1469 391 1925 391 
Q 2381 391 2643 752 
Q 2906 1113 2906 1747 
Q 2906 2381 2643 2742 
Q 2381 3103 1925 3103 
Q 1469 3103 1208 2742 
Q 947 2381 947 1747 
z
" transform="scale(0.015625)"/>
      </defs>
      <use xlink:href="#DejaVuSans-53"/>
      <use xlink:href="#DejaVuSans-47" transform="translate(63.476562 0)"/>
      <use xlink:href="#DejaVuSans-44" transform="translate(140.966797 0)"/>
      <use xlink:href="#DejaVuSans-3a" transform="translate(217.96875 0)"/>
      <use xlink:href="#DejaVuSans-20" transform="translate(251.660156 0)"/>
      <use xlink:href="#DejaVuSans-46" transform="translate(283.447266 0)"/>
      <use xlink:href="#DejaVuSans-69" transform="translate(333.716797 0)"/>
      <use xlink:href="#DejaVuSans-78" transform="translate(361.5 0)"/>
      <use xlink:href="#DejaVuSans-65" transform="translate(417.554688 0)"/>
      <use xlink:href="#DejaVuSans-64" transform="translate(479.078125 0)"/>
      <use xlink:href="#DejaVuSans-20" transform="translate(542.554688 0)"/>
      <use xlink:href="#DejaVuSans-53" transform="translate(574.341797 0)"/>
      <use xlink:href="#DejaVuSans-74" transform="translate(637.818359 0)"/>
      <use xlink:href="#DejaVuSans-65" transform="translate(677.027344 0)"/>
      <use xlink:href="#DejaVuSans-70" transform="translate(738.550781 0)"/>
      <use xlink:href="#DejaVuSans-20" transform="translate(802.027344 0)"/>
      <use xlink:href="#DejaVuSans-53" transform="translate(833.814453 0)"/>
      <use xlink:href="#DejaVuSans-69" transform="translate(897.291016 0)"/>
      <use xlink:href="#DejaVuSans-7a" transform="translate(925.074219 0)"/>
      <use xlink:href="#DejaVuSans-65" transform="translate(977.564453 0)"/>
     </g>
    </g>
    <g id="line2d_28">
     <path d="M 381.318348 83.49105 
L 391.318348 83.49105 
L 401.318348 83.49105 
" style="fill: none; stroke: #008000; stroke-opacity: 0.8; stroke-width: 3; stroke-linecap: square"/>
    </g>
    <g id="text_19">
     <!-- Meta-SGD: Adaptive Step Size -->
     <g transform="translate(409.318348 86.99105) scale(0.1 -0.1)">
      <defs>
       <path id="DejaVuSans-4d" d="M 628 4666 
L 1569 4666 
L 2759 1491 
L 3956 4666 
L 4897 4666 
L 4897 0 
L 4281 0 
L 4281 4097 
L 3078 897 
L 2444 897 
L 1241 4097 
L 1241 0 
L 628 0 
L 628 4666 
z
" transform="scale(0.015625)"/>
       <path id="DejaVuSans-2d" d="M 313 2009 
L 1997 2009 
L 1997 1497 
L 313 1497 
L 313 2009 
z
" transform="scale(0.015625)"/>
       <path id="DejaVuSans-41" d="M 2188 4044 
L 1331 1722 
L 3047 1722 
L 2188 4044 
z
M 1831 4666 
L 2547 4666 
L 4325 0 
L 3669 0 
L 3244 1197 
L 1141 1197 
L 716 0 
L 50 0 
L 1831 4666 
z
" transform="scale(0.015625)"/>
       <path id="DejaVuSans-76" d="M 191 3500 
L 800 3500 
L 1894 563 
L 2988 3500 
L 3597 3500 
L 2284 0 
L 1503 0 
L 191 3500 
z
" transform="scale(0.015625)"/>
      </defs>
      <use xlink:href="#DejaVuSans-4d"/>
      <use xlink:href="#DejaVuSans-65" transform="translate(86.279297 0)"/>
      <use xlink:href="#DejaVuSans-74" transform="translate(147.802734 0)"/>
      <use xlink:href="#DejaVuSans-61" transform="translate(187.011719 0)"/>
      <use xlink:href="#DejaVuSans-2d" transform="translate(248.291016 0)"/>
      <use xlink:href="#DejaVuSans-53" transform="translate(284.375 0)"/>
      <use xlink:href="#DejaVuSans-47" transform="translate(347.851562 0)"/>
      <use xlink:href="#DejaVuSans-44" transform="translate(425.341797 0)"/>
      <use xlink:href="#DejaVuSans-3a" transform="translate(502.34375 0)"/>
      <use xlink:href="#DejaVuSans-20" transform="translate(536.035156 0)"/>
      <use xlink:href="#DejaVuSans-41" transform="translate(567.822266 0)"/>
      <use xlink:href="#DejaVuSans-64" transform="translate(634.480469 0)"/>
      <use xlink:href="#DejaVuSans-61" transform="translate(697.957031 0)"/>
      <use xlink:href="#DejaVuSans-70" transform="translate(759.236328 0)"/>
      <use xlink:href="#DejaVuSans-74" transform="translate(822.712891 0)"/>
      <use xlink:href="#DejaVuSans-69" transform="translate(861.921875 0)"/>
      <use xlink:href="#DejaVuSans-76" transform="translate(889.705078 0)"/>
      <use xlink:href="#DejaVuSans-65" transform="translate(948.884766 0)"/>
      <use xlink:href="#DejaVuSans-20" transform="translate(1010.408203 0)"/>
      <use xlink:href="#DejaVuSans-53" transform="translate(1042.195312 0)"/>
      <use xlink:href="#DejaVuSans-74" transform="translate(1105.671875 0)"/>
      <use xlink:href="#DejaVuSans-65" transform="translate(1144.880859 0)"/>
      <use xlink:href="#DejaVuSans-70" transform="translate(1206.404297 0)"/>
      <use xlink:href="#DejaVuSans-20" transform="translate(1269.880859 0)"/>
      <use xlink:href="#DejaVuSans-53" transform="translate(1301.667969 0)"/>
      <use xlink:href="#DejaVuSans-69" transform="translate(1365.144531 0)"/>
      <use xlink:href="#DejaVuSans-7a" transform="translate(1392.927734 0)"/>
      <use xlink:href="#DejaVuSans-65" transform="translate(1445.417969 0)"/>
     </g>
    </g>
   </g>
  </g>
  <g id="axes_2">
   <g id="patch_10">
    <path d="M 624.787277 385.575207 
L 1137.29625 385.575207 
L 1137.29625 55.714487 
L 624.787277 55.714487 
z
" style="fill: #ffffff"/>
   </g>
   <g id="matplotlib.axis_3">
    <g id="xtick_7">
     <g id="line2d_29">
      <path d="M 648.083139 385.575207 
L 648.083139 55.714487 
" clip-path="url(#pfe9adf4dd2)" style="fill: none; stroke: #b0b0b0; stroke-opacity: 0.3; stroke-width: 0.8; stroke-linecap: square"/>
     </g>
     <g id="line2d_30">
      <g>
       <use xlink:href="#mbda22af888" x="648.083139" y="385.575207" style="stroke: #000000; stroke-width: 0.8"/>
      </g>
     </g>
     <g id="text_20">
      <!-- 0 -->
      <g transform="translate(644.901889 400.173644) scale(0.1 -0.1)">
       <use xlink:href="#DejaVuSans-30"/>
      </g>
     </g>
    </g>
    <g id="xtick_8">
     <g id="line2d_31">
      <path d="M 742.207836 385.575207 
L 742.207836 55.714487 
" clip-path="url(#pfe9adf4dd2)" style="fill: none; stroke: #b0b0b0; stroke-opacity: 0.3; stroke-width: 0.8; stroke-linecap: square"/>
     </g>
     <g id="line2d_32">
      <g>
       <use xlink:href="#mbda22af888" x="742.207836" y="385.575207" style="stroke: #000000; stroke-width: 0.8"/>
      </g>
     </g>
     <g id="text_21">
      <!-- 20 -->
      <g transform="translate(735.845336 400.173644) scale(0.1 -0.1)">
       <use xlink:href="#DejaVuSans-32"/>
       <use xlink:href="#DejaVuSans-30" transform="translate(63.623047 0)"/>
      </g>
     </g>
    </g>
    <g id="xtick_9">
     <g id="line2d_33">
      <path d="M 836.332533 385.575207 
L 836.332533 55.714487 
" clip-path="url(#pfe9adf4dd2)" style="fill: none; stroke: #b0b0b0; stroke-opacity: 0.3; stroke-width: 0.8; stroke-linecap: square"/>
     </g>
     <g id="line2d_34">
      <g>
       <use xlink:href="#mbda22af888" x="836.332533" y="385.575207" style="stroke: #000000; stroke-width: 0.8"/>
      </g>
     </g>
     <g id="text_22">
      <!-- 40 -->
      <g transform="translate(829.970033 400.173644) scale(0.1 -0.1)">
       <use xlink:href="#DejaVuSans-34"/>
       <use xlink:href="#DejaVuSans-30" transform="translate(63.623047 0)"/>
      </g>
     </g>
    </g>
    <g id="xtick_10">
     <g id="line2d_35">
      <path d="M 930.457229 385.575207 
L 930.457229 55.714487 
" clip-path="url(#pfe9adf4dd2)" style="fill: none; stroke: #b0b0b0; stroke-opacity: 0.3; stroke-width: 0.8; stroke-linecap: square"/>
     </g>
     <g id="line2d_36">
      <g>
       <use xlink:href="#mbda22af888" x="930.457229" y="385.575207" style="stroke: #000000; stroke-width: 0.8"/>
      </g>
     </g>
     <g id="text_23">
      <!-- 60 -->
      <g transform="translate(924.094729 400.173644) scale(0.1 -0.1)">
       <use xlink:href="#DejaVuSans-36"/>
       <use xlink:href="#DejaVuSans-30" transform="translate(63.623047 0)"/>
      </g>
     </g>
    </g>
    <g id="xtick_11">
     <g id="line2d_37">
      <path d="M 1024.581926 385.575207 
L 1024.581926 55.714487 
" clip-path="url(#pfe9adf4dd2)" style="fill: none; stroke: #b0b0b0; stroke-opacity: 0.3; stroke-width: 0.8; stroke-linecap: square"/>
     </g>
     <g id="line2d_38">
      <g>
       <use xlink:href="#mbda22af888" x="1024.581926" y="385.575207" style="stroke: #000000; stroke-width: 0.8"/>
      </g>
     </g>
     <g id="text_24">
      <!-- 80 -->
      <g transform="translate(1018.219426 400.173644) scale(0.1 -0.1)">
       <use xlink:href="#DejaVuSans-38"/>
       <use xlink:href="#DejaVuSans-30" transform="translate(63.623047 0)"/>
      </g>
     </g>
    </g>
    <g id="xtick_12">
     <g id="line2d_39">
      <path d="M 1118.706622 385.575207 
L 1118.706622 55.714487 
" clip-path="url(#pfe9adf4dd2)" style="fill: none; stroke: #b0b0b0; stroke-opacity: 0.3; stroke-width: 0.8; stroke-linecap: square"/>
     </g>
     <g id="line2d_40">
      <g>
       <use xlink:href="#mbda22af888" x="1118.706622" y="385.575207" style="stroke: #000000; stroke-width: 0.8"/>
      </g>
     </g>
     <g id="text_25">
      <!-- 100 -->
      <g transform="translate(1109.162872 400.173644) scale(0.1 -0.1)">
       <use xlink:href="#DejaVuSans-31"/>
       <use xlink:href="#DejaVuSans-30" transform="translate(63.623047 0)"/>
       <use xlink:href="#DejaVuSans-30" transform="translate(127.246094 0)"/>
      </g>
     </g>
    </g>
    <g id="text_26">
     <!-- Optimization Step -->
     <g transform="translate(836.08317 413.851769) scale(0.1 -0.1)">
      <use xlink:href="#DejaVuSans-4f"/>
      <use xlink:href="#DejaVuSans-70" transform="translate(78.710938 0)"/>
      <use xlink:href="#DejaVuSans-74" transform="translate(142.1875 0)"/>
      <use xlink:href="#DejaVuSans-69" transform="translate(181.396484 0)"/>
      <use xlink:href="#DejaVuSans-6d" transform="translate(209.179688 0)"/>
      <use xlink:href="#DejaVuSans-69" transform="translate(306.591797 0)"/>
      <use xlink:href="#DejaVuSans-7a" transform="translate(334.375 0)"/>
      <use xlink:href="#DejaVuSans-61" transform="translate(386.865234 0)"/>
      <use xlink:href="#DejaVuSans-74" transform="translate(448.144531 0)"/>
      <use xlink:href="#DejaVuSans-69" transform="translate(487.353516 0)"/>
      <use xlink:href="#DejaVuSans-6f" transform="translate(515.136719 0)"/>
      <use xlink:href="#DejaVuSans-6e" transform="translate(576.318359 0)"/>
      <use xlink:href="#DejaVuSans-20" transform="translate(639.697266 0)"/>
      <use xlink:href="#DejaVuSans-53" transform="translate(671.484375 0)"/>
      <use xlink:href="#DejaVuSans-74" transform="translate(734.960938 0)"/>
      <use xlink:href="#DejaVuSans-65" transform="translate(774.169922 0)"/>
      <use xlink:href="#DejaVuSans-70" transform="translate(835.693359 0)"/>
     </g>
    </g>
   </g>
   <g id="matplotlib.axis_4">
    <g id="ytick_7">
     <g id="line2d_41">
      <path d="M 624.787277 384.171422 
L 1137.29625 384.171422 
" clip-path="url(#pfe9adf4dd2)" style="fill: none; stroke: #b0b0b0; stroke-opacity: 0.3; stroke-width: 0.8; stroke-linecap: square"/>
     </g>
     <g id="line2d_42">
      <g>
       <use xlink:href="#mf7015d32ce" x="624.787277" y="384.171422" style="stroke: #000000; stroke-width: 0.8"/>
      </g>
     </g>
     <g id="text_27">
      <!-- $\mathdefault{10^{-2}}$ -->
      <g transform="translate(594.287277 387.970641) scale(0.1 -0.1)">
       <defs>
        <path id="DejaVuSans-2212" d="M 678 2272 
L 4684 2272 
L 4684 1741 
L 678 1741 
L 678 2272 
z
" transform="scale(0.015625)"/>
       </defs>
       <use xlink:href="#DejaVuSans-31" transform="translate(0 0.765625)"/>
       <use xlink:href="#DejaVuSans-30" transform="translate(63.623047 0.765625)"/>
       <use xlink:href="#DejaVuSans-2212" transform="translate(128.203125 39.046875) scale(0.7)"/>
       <use xlink:href="#DejaVuSans-32" transform="translate(186.855469 39.046875) scale(0.7)"/>
      </g>
     </g>
    </g>
    <g id="ytick_8">
     <g id="line2d_43">
      <path d="M 624.787277 228.868333 
L 1137.29625 228.868333 
" clip-path="url(#pfe9adf4dd2)" style="fill: none; stroke: #b0b0b0; stroke-opacity: 0.3; stroke-width: 0.8; stroke-linecap: square"/>
     </g>
     <g id="line2d_44">
      <g>
       <use xlink:href="#mf7015d32ce" x="624.787277" y="228.868333" style="stroke: #000000; stroke-width: 0.8"/>
      </g>
     </g>
     <g id="text_28">
      <!-- $\mathdefault{10^{-1}}$ -->
      <g transform="translate(594.287277 232.667552) scale(0.1 -0.1)">
       <use xlink:href="#DejaVuSans-31" transform="translate(0 0.684375)"/>
       <use xlink:href="#DejaVuSans-30" transform="translate(63.623047 0.684375)"/>
       <use xlink:href="#DejaVuSans-2212" transform="translate(128.203125 38.965625) scale(0.7)"/>
       <use xlink:href="#DejaVuSans-31" transform="translate(186.855469 38.965625) scale(0.7)"/>
      </g>
     </g>
    </g>
    <g id="ytick_9">
     <g id="line2d_45">
      <path d="M 624.787277 73.565244 
L 1137.29625 73.565244 
" clip-path="url(#pfe9adf4dd2)" style="fill: none; stroke: #b0b0b0; stroke-opacity: 0.3; stroke-width: 0.8; stroke-linecap: square"/>
     </g>
     <g id="line2d_46">
      <g>
       <use xlink:href="#mf7015d32ce" x="624.787277" y="73.565244" style="stroke: #000000; stroke-width: 0.8"/>
      </g>
     </g>
     <g id="text_29">
      <!-- $\mathdefault{10^{0}}$ -->
      <g transform="translate(600.187277 77.364463) scale(0.1 -0.1)">
       <use xlink:href="#DejaVuSans-31" transform="translate(0 0.765625)"/>
       <use xlink:href="#DejaVuSans-30" transform="translate(63.623047 0.765625)"/>
       <use xlink:href="#DejaVuSans-30" transform="translate(128.203125 39.046875) scale(0.7)"/>
      </g>
     </g>
    </g>
    <g id="ytick_10">
     <g id="line2d_47">
      <defs>
       <path id="mf7b92e962f" d="M 0 0 
L -2 0 
" style="stroke: #000000; stroke-width: 0.6"/>
      </defs>
      <g>
       <use xlink:href="#mf7b92e962f" x="624.787277" y="337.420534" style="stroke: #000000; stroke-width: 0.6"/>
      </g>
     </g>
    </g>
    <g id="ytick_11">
     <g id="line2d_48">
      <g>
       <use xlink:href="#mf7b92e962f" x="624.787277" y="310.073017" style="stroke: #000000; stroke-width: 0.6"/>
      </g>
     </g>
    </g>
    <g id="ytick_12">
     <g id="line2d_49">
      <g>
       <use xlink:href="#mf7b92e962f" x="624.787277" y="290.669646" style="stroke: #000000; stroke-width: 0.6"/>
      </g>
     </g>
    </g>
    <g id="ytick_13">
     <g id="line2d_50">
      <g>
       <use xlink:href="#mf7b92e962f" x="624.787277" y="275.619221" style="stroke: #000000; stroke-width: 0.6"/>
      </g>
     </g>
    </g>
    <g id="ytick_14">
     <g id="line2d_51">
      <g>
       <use xlink:href="#mf7b92e962f" x="624.787277" y="263.322129" style="stroke: #000000; stroke-width: 0.6"/>
      </g>
     </g>
    </g>
    <g id="ytick_15">
     <g id="line2d_52">
      <g>
       <use xlink:href="#mf7b92e962f" x="624.787277" y="252.925086" style="stroke: #000000; stroke-width: 0.6"/>
      </g>
     </g>
    </g>
    <g id="ytick_16">
     <g id="line2d_53">
      <g>
       <use xlink:href="#mf7b92e962f" x="624.787277" y="243.918757" style="stroke: #000000; stroke-width: 0.6"/>
      </g>
     </g>
    </g>
    <g id="ytick_17">
     <g id="line2d_54">
      <g>
       <use xlink:href="#mf7b92e962f" x="624.787277" y="235.974613" style="stroke: #000000; stroke-width: 0.6"/>
      </g>
     </g>
    </g>
    <g id="ytick_18">
     <g id="line2d_55">
      <g>
       <use xlink:href="#mf7b92e962f" x="624.787277" y="182.117445" style="stroke: #000000; stroke-width: 0.6"/>
      </g>
     </g>
    </g>
    <g id="ytick_19">
     <g id="line2d_56">
      <g>
       <use xlink:href="#mf7b92e962f" x="624.787277" y="154.769928" style="stroke: #000000; stroke-width: 0.6"/>
      </g>
     </g>
    </g>
    <g id="ytick_20">
     <g id="line2d_57">
      <g>
       <use xlink:href="#mf7b92e962f" x="624.787277" y="135.366556" style="stroke: #000000; stroke-width: 0.6"/>
      </g>
     </g>
    </g>
    <g id="ytick_21">
     <g id="line2d_58">
      <g>
       <use xlink:href="#mf7b92e962f" x="624.787277" y="120.316132" style="stroke: #000000; stroke-width: 0.6"/>
      </g>
     </g>
    </g>
    <g id="ytick_22">
     <g id="line2d_59">
      <g>
       <use xlink:href="#mf7b92e962f" x="624.787277" y="108.01904" style="stroke: #000000; stroke-width: 0.6"/>
      </g>
     </g>
    </g>
    <g id="ytick_23">
     <g id="line2d_60">
      <g>
       <use xlink:href="#mf7b92e962f" x="624.787277" y="97.621997" style="stroke: #000000; stroke-width: 0.6"/>
      </g>
     </g>
    </g>
    <g id="ytick_24">
     <g id="line2d_61">
      <g>
       <use xlink:href="#mf7b92e962f" x="624.787277" y="88.615668" style="stroke: #000000; stroke-width: 0.6"/>
      </g>
     </g>
    </g>
    <g id="ytick_25">
     <g id="line2d_62">
      <g>
       <use xlink:href="#mf7b92e962f" x="624.787277" y="80.671523" style="stroke: #000000; stroke-width: 0.6"/>
      </g>
     </g>
    </g>
    <g id="text_30">
     <!-- Loss -->
     <g transform="translate(588.207589 231.612034) rotate(-90) scale(0.1 -0.1)">
      <defs>
       <path id="DejaVuSans-73" d="M 2834 3397 
L 2834 2853 
Q 2591 2978 2328 3040 
Q 2066 3103 1784 3103 
Q 1356 3103 1142 2972 
Q 928 2841 928 2578 
Q 928 2378 1081 2264 
Q 1234 2150 1697 2047 
L 1894 2003 
Q 2506 1872 2764 1633 
Q 3022 1394 3022 966 
Q 3022 478 2636 193 
Q 2250 -91 1575 -91 
Q 1294 -91 989 -36 
Q 684 19 347 128 
L 347 722 
Q 666 556 975 473 
Q 1284 391 1588 391 
Q 1994 391 2212 530 
Q 2431 669 2431 922 
Q 2431 1156 2273 1281 
Q 2116 1406 1581 1522 
L 1381 1569 
Q 847 1681 609 1914 
Q 372 2147 372 2553 
Q 372 3047 722 3315 
Q 1072 3584 1716 3584 
Q 2034 3584 2315 3537 
Q 2597 3491 2834 3397 
z
" transform="scale(0.015625)"/>
      </defs>
      <use xlink:href="#DejaVuSans-4c"/>
      <use xlink:href="#DejaVuSans-6f" transform="translate(53.962891 0)"/>
      <use xlink:href="#DejaVuSans-73" transform="translate(115.144531 0)"/>
      <use xlink:href="#DejaVuSans-73" transform="translate(167.244141 0)"/>
     </g>
    </g>
   </g>
   <g id="line2d_63">
    <path d="M 648.083139 73.565244 
L 652.789374 71.724712 
L 657.495609 70.708156 
L 662.201844 71.012978 
L 666.908079 72.862029 
L 671.614314 76.194626 
L 676.320548 80.655741 
L 681.026783 85.594314 
L 685.733018 90.126237 
L 690.439253 93.335564 
L 695.145488 94.610437 
L 699.851723 93.936508 
L 704.557957 91.91164 
L 709.264192 89.469095 
L 713.970427 87.536805 
L 718.676662 86.822632 
L 723.382897 87.739795 
L 728.089131 90.398049 
L 732.795366 94.597937 
L 737.501601 99.810947 
L 742.207836 105.181654 
L 746.914071 109.641385 
L 751.620306 112.218044 
L 756.32654 112.464855 
L 761.032775 110.705067 
L 765.73901 107.865715 
L 770.445245 105.059086 
L 775.15148 103.2346 
L 779.857715 103.028623 
L 784.563949 104.743999 
L 789.270184 108.358688 
L 793.976419 113.510126 
L 798.682654 119.460103 
L 803.388889 125.112354 
L 808.095124 129.216544 
L 812.801358 130.829314 
L 817.507593 129.808649 
L 822.213828 126.906157 
L 826.920063 123.362942 
L 831.626298 120.396509 
L 836.332533 118.911036 
L 841.038767 119.433478 
L 845.745002 122.136918 
L 850.451237 126.848913 
L 855.157472 133.011605 
L 859.863707 139.628549 
L 864.569942 145.324106 
L 869.276176 148.70066 
L 873.982411 148.986938 
L 878.688646 146.510175 
L 883.394881 142.500589 
L 888.101116 138.444515 
L 892.807351 135.570835 
L 897.513585 134.678526 
L 902.21982 136.158949 
L 906.926055 140.04155 
L 911.63229 145.980926 
L 916.338525 153.177982 
L 921.04476 160.313335 
L 925.750994 165.701029 
L 930.457229 167.889506 
L 935.163464 166.493325 
L 939.869699 162.466011 
L 944.575934 157.493656 
L 949.282169 153.189283 
L 953.988403 150.697073 
L 958.694638 150.667024 
L 963.400873 153.3412 
L 968.107108 158.59377 
L 972.813343 165.873841 
L 977.519578 174.07324 
L 982.225812 181.466667 
L 986.932047 186.057014 
L 991.638282 186.529412 
L 996.344517 183.15956 
L 1001.050752 177.62128 
L 1005.756986 171.940817 
L 1010.463221 167.711033 
L 1015.169456 165.912274 
L 1019.875691 167.022927 
L 1024.581926 171.132343 
L 1029.288161 177.944838 
L 1033.994395 186.652729 
L 1038.70063 195.737934 
L 1043.406865 202.972148 
L 1048.1131 206.121561 
L 1052.819335 204.335725 
L 1057.52557 198.837114 
L 1062.231804 191.985211 
L 1066.938039 185.946916 
L 1071.644274 182.153186 
L 1076.350509 181.37242 
L 1081.056744 183.909715 
L 1085.762979 189.704186 
L 1090.469213 198.265513 
L 1095.175448 208.445775 
L 1099.881683 218.16882 
L 1104.587918 224.613386 
L 1109.294153 225.537097 
L 1114.000388 221.03024 
" clip-path="url(#pfe9adf4dd2)" style="fill: none; stroke: #ff0000; stroke-opacity: 0.8; stroke-width: 3; stroke-linecap: square"/>
   </g>
   <g id="line2d_64">
    <path d="M 648.083139 73.565244 
L 652.789374 75.253988 
L 657.495609 77.007695 
L 662.201844 78.910662 
L 666.908079 81.035007 
L 671.614314 83.435841 
L 676.320548 86.147772 
L 681.026783 89.182437 
L 685.733018 92.526836 
L 690.439253 96.14244 
L 695.145488 99.965369 
L 699.851723 103.908206 
L 704.557957 107.864264 
L 709.264192 111.715066 
L 713.970427 115.341381 
L 718.676662 118.637125 
L 723.382897 121.52418 
L 728.089131 123.965038 
L 732.795366 125.970018 
L 737.501601 127.596981 
L 742.207836 128.943652 
L 746.914071 130.13471 
L 751.620306 131.306939 
L 756.32654 132.595363 
L 761.032775 134.122186 
L 765.73901 135.988968 
L 770.445245 138.271568 
L 775.15148 141.016889 
L 779.857715 144.240524 
L 784.563949 147.924644 
L 789.270184 152.015952 
L 793.976419 156.42414 
L 798.682654 161.022002 
L 803.388889 165.649072 
L 808.095124 170.121062 
L 812.801358 174.246853 
L 817.507593 177.852833 
L 822.213828 180.810931 
L 826.920063 183.063272 
L 831.626298 184.635411 
L 836.332533 185.63328 
L 841.038767 186.225057 
L 845.745002 186.614524 
L 850.451237 187.013995 
L 855.157472 187.622659 
L 859.863707 188.612505 
L 864.569942 190.120921 
L 869.276176 192.247697 
L 873.982411 195.053935 
L 878.688646 198.560892 
L 883.394881 202.747456 
L 888.101116 207.545742 
L 892.807351 212.835238 
L 897.513585 218.437329 
L 902.21982 224.113901 
L 906.926055 229.575829 
L 911.63229 234.50778 
L 916.338525 238.612453 
L 921.04476 241.668291 
L 925.750994 243.582895 
L 930.457229 244.419466 
L 935.163464 244.383389 
L 939.869699 243.775827 
L 944.575934 242.935549 
L 949.282169 242.189626 
L 953.988403 241.82284 
L 958.694638 242.06495 
L 963.400873 243.089751 
L 968.107108 245.019377 
L 972.813343 247.92901 
L 977.519578 251.848877 
L 982.225812 256.761645 
L 986.932047 262.594041 
L 991.638282 269.20231 
L 996.344517 276.352926 
L 1001.050752 283.703951 
L 1005.756986 290.799532 
L 1010.463221 297.097951 
L 1015.169456 302.053293 
L 1019.875691 305.247546 
L 1024.581926 306.524631 
L 1029.288161 306.050031 
L 1033.994395 304.256098 
L 1038.70063 301.710313 
L 1043.406865 298.982816 
L 1048.1131 296.563521 
L 1052.819335 294.833457 
L 1057.52557 294.070695 
L 1062.231804 294.470126 
L 1066.938039 296.164091 
L 1071.644274 299.237806 
L 1076.350509 303.737122 
L 1081.056744 309.667144 
L 1085.762979 316.979567 
L 1090.469213 325.545323 
L 1095.175448 335.108623 
L 1099.881683 345.222431 
L 1104.587918 355.181676 
L 1109.294153 364.0078 
L 1114.000388 370.581538 
" clip-path="url(#pfe9adf4dd2)" style="fill: none; stroke: #008000; stroke-opacity: 0.8; stroke-width: 3; stroke-linecap: square"/>
   </g>
   <g id="patch_11">
    <path d="M 624.787277 385.575207 
L 624.787277 55.714487 
" style="fill: none; stroke: #000000; stroke-width: 0.8; stroke-linejoin: miter; stroke-linecap: square"/>
   </g>
   <g id="patch_12">
    <path d="M 1137.29625 385.575207 
L 1137.29625 55.714487 
" style="fill: none; stroke: #000000; stroke-width: 0.8; stroke-linejoin: miter; stroke-linecap: square"/>
   </g>
   <g id="patch_13">
    <path d="M 624.787277 385.575207 
L 1137.29625 385.575207 
" style="fill: none; stroke: #000000; stroke-width: 0.8; stroke-linejoin: miter; stroke-linecap: square"/>
   </g>
   <g id="patch_14">
    <path d="M 624.787277 55.714487 
L 1137.29625 55.714487 
" style="fill: none; stroke: #000000; stroke-width: 0.8; stroke-linejoin: miter; stroke-linecap: square"/>
   </g>
   <g id="patch_15">
    <path d="M 1024.22447 179.371776 
Q 1058.837106 199.694389 1092.485611 219.450918 
" style="fill: none; opacity: 0.7; stroke: #ff0000; stroke-linecap: round"/>
    <path d="M 1090.048873 215.700944 
L 1092.485611 219.450918 
L 1088.023589 219.150324 
" style="fill: none; opacity: 0.7; stroke: #ff0000; stroke-linecap: round"/>
   </g>
   <g id="text_31">
    <!-- Final: 0.112 -->
    <g style="fill: #ff0000" transform="translate(977.519578 174.279352) scale(0.1 -0.1)">
     <defs>
      <path id="DejaVuSans-Bold-3a" d="M 716 3500 
L 1844 3500 
L 1844 2291 
L 716 2291 
L 716 3500 
z
M 716 1209 
L 1844 1209 
L 1844 0 
L 716 0 
L 716 1209 
z
" transform="scale(0.015625)"/>
      <path id="DejaVuSans-Bold-30" d="M 2944 2338 
Q 2944 3213 2780 3570 
Q 2616 3928 2228 3928 
Q 1841 3928 1675 3570 
Q 1509 3213 1509 2338 
Q 1509 1453 1675 1090 
Q 1841 728 2228 728 
Q 2613 728 2778 1090 
Q 2944 1453 2944 2338 
z
M 4147 2328 
Q 4147 1169 3647 539 
Q 3147 -91 2228 -91 
Q 1306 -91 806 539 
Q 306 1169 306 2328 
Q 306 3491 806 4120 
Q 1306 4750 2228 4750 
Q 3147 4750 3647 4120 
Q 4147 3491 4147 2328 
z
" transform="scale(0.015625)"/>
      <path id="DejaVuSans-Bold-2e" d="M 653 1209 
L 1778 1209 
L 1778 0 
L 653 0 
L 653 1209 
z
" transform="scale(0.015625)"/>
      <path id="DejaVuSans-Bold-31" d="M 750 831 
L 1813 831 
L 1813 3847 
L 722 3622 
L 722 4441 
L 1806 4666 
L 2950 4666 
L 2950 831 
L 4013 831 
L 4013 0 
L 750 0 
L 750 831 
z
" transform="scale(0.015625)"/>
      <path id="DejaVuSans-Bold-32" d="M 1844 884 
L 3897 884 
L 3897 0 
L 506 0 
L 506 884 
L 2209 2388 
Q 2438 2594 2547 2791 
Q 2656 2988 2656 3200 
Q 2656 3528 2436 3728 
Q 2216 3928 1850 3928 
Q 1569 3928 1234 3808 
Q 900 3688 519 3450 
L 519 4475 
Q 925 4609 1322 4679 
Q 1719 4750 2100 4750 
Q 2938 4750 3402 4381 
Q 3866 4013 3866 3353 
Q 3866 2972 3669 2642 
Q 3472 2313 2841 1759 
L 1844 884 
z
" transform="scale(0.015625)"/>
     </defs>
     <use xlink:href="#DejaVuSans-Bold-46"/>
     <use xlink:href="#DejaVuSans-Bold-69" transform="translate(68.310547 0)"/>
     <use xlink:href="#DejaVuSans-Bold-6e" transform="translate(102.587891 0)"/>
     <use xlink:href="#DejaVuSans-Bold-61" transform="translate(173.779297 0)"/>
     <use xlink:href="#DejaVuSans-Bold-6c" transform="translate(241.259766 0)"/>
     <use xlink:href="#DejaVuSans-Bold-3a" transform="translate(275.537109 0)"/>
     <use xlink:href="#DejaVuSans-Bold-20" transform="translate(315.527344 0)"/>
     <use xlink:href="#DejaVuSans-Bold-30" transform="translate(350.341797 0)"/>
     <use xlink:href="#DejaVuSans-Bold-2e" transform="translate(419.921875 0)"/>
     <use xlink:href="#DejaVuSans-Bold-31" transform="translate(457.910156 0)"/>
     <use xlink:href="#DejaVuSans-Bold-31" transform="translate(527.490234 0)"/>
     <use xlink:href="#DejaVuSans-Bold-32" transform="translate(597.070312 0)"/>
    </g>
   </g>
   <g id="patch_16">
    <path d="M 1025.731888 406.81005 
Q 1059.565703 389.159043 1092.408268 372.025168 
" style="fill: none; opacity: 0.7; stroke: #008000; stroke-linecap: round"/>
    <path d="M 1087.936794 372.102115 
L 1092.408268 372.025168 
L 1089.786942 375.648515 
" style="fill: none; opacity: 0.7; stroke: #008000; stroke-linecap: round"/>
   </g>
   <g id="text_32">
    <!-- Final: 0.012 -->
    <g style="fill: #008000" transform="translate(977.519578 417.332426) scale(0.1 -0.1)">
     <use xlink:href="#DejaVuSans-Bold-46"/>
     <use xlink:href="#DejaVuSans-Bold-69" transform="translate(68.310547 0)"/>
     <use xlink:href="#DejaVuSans-Bold-6e" transform="translate(102.587891 0)"/>
     <use xlink:href="#DejaVuSans-Bold-61" transform="translate(173.779297 0)"/>
     <use xlink:href="#DejaVuSans-Bold-6c" transform="translate(241.259766 0)"/>
     <use xlink:href="#DejaVuSans-Bold-3a" transform="translate(275.537109 0)"/>
     <use xlink:href="#DejaVuSans-Bold-20" transform="translate(315.527344 0)"/>
     <use xlink:href="#DejaVuSans-Bold-30" transform="translate(350.341797 0)"/>
     <use xlink:href="#DejaVuSans-Bold-2e" transform="translate(419.921875 0)"/>
     <use xlink:href="#DejaVuSans-Bold-30" transform="translate(457.910156 0)"/>
     <use xlink:href="#DejaVuSans-Bold-31" transform="translate(527.490234 0)"/>
     <use xlink:href="#DejaVuSans-Bold-32" transform="translate(597.070312 0)"/>
    </g>
   </g>
   <g id="text_33">
    <!-- Resulting Loss Convergence -->
    <g transform="translate(769.808482 49.714487) scale(0.14 -0.14)">
     <defs>
      <path id="DejaVuSans-Bold-52" d="M 2297 2597 
Q 2675 2597 2839 2737 
Q 3003 2878 3003 3200 
Q 3003 3519 2839 3656 
Q 2675 3794 2297 3794 
L 1791 3794 
L 1791 2597 
L 2297 2597 
z
M 1791 1766 
L 1791 0 
L 588 0 
L 588 4666 
L 2425 4666 
Q 3347 4666 3776 4356 
Q 4206 4047 4206 3378 
Q 4206 2916 3982 2619 
Q 3759 2322 3309 2181 
Q 3556 2125 3751 1926 
Q 3947 1728 4147 1325 
L 4800 0 
L 3519 0 
L 2950 1159 
Q 2778 1509 2601 1637 
Q 2425 1766 2131 1766 
L 1791 1766 
z
" transform="scale(0.015625)"/>
      <path id="DejaVuSans-Bold-4c" d="M 588 4666 
L 1791 4666 
L 1791 909 
L 3903 909 
L 3903 0 
L 588 0 
L 588 4666 
z
" transform="scale(0.015625)"/>
      <path id="DejaVuSans-Bold-43" d="M 4288 256 
Q 3956 84 3597 -3 
Q 3238 -91 2847 -91 
Q 1681 -91 1000 561 
Q 319 1213 319 2328 
Q 319 3447 1000 4098 
Q 1681 4750 2847 4750 
Q 3238 4750 3597 4662 
Q 3956 4575 4288 4403 
L 4288 3438 
Q 3953 3666 3628 3772 
Q 3303 3878 2944 3878 
Q 2300 3878 1931 3465 
Q 1563 3053 1563 2328 
Q 1563 1606 1931 1193 
Q 2300 781 2944 781 
Q 3303 781 3628 887 
Q 3953 994 4288 1222 
L 4288 256 
z
" transform="scale(0.015625)"/>
     </defs>
     <use xlink:href="#DejaVuSans-Bold-52"/>
     <use xlink:href="#DejaVuSans-Bold-65" transform="translate(77.001953 0)"/>
     <use xlink:href="#DejaVuSans-Bold-73" transform="translate(144.824219 0)"/>
     <use xlink:href="#DejaVuSans-Bold-75" transform="translate(204.345703 0)"/>
     <use xlink:href="#DejaVuSans-Bold-6c" transform="translate(275.537109 0)"/>
     <use xlink:href="#DejaVuSans-Bold-74" transform="translate(309.814453 0)"/>
     <use xlink:href="#DejaVuSans-Bold-69" transform="translate(357.617188 0)"/>
     <use xlink:href="#DejaVuSans-Bold-6e" transform="translate(391.894531 0)"/>
     <use xlink:href="#DejaVuSans-Bold-67" transform="translate(463.085938 0)"/>
     <use xlink:href="#DejaVuSans-Bold-20" transform="translate(534.667969 0)"/>
     <use xlink:href="#DejaVuSans-Bold-4c" transform="translate(569.482422 0)"/>
     <use xlink:href="#DejaVuSans-Bold-6f" transform="translate(633.203125 0)"/>
     <use xlink:href="#DejaVuSans-Bold-73" transform="translate(701.904297 0)"/>
     <use xlink:href="#DejaVuSans-Bold-73" transform="translate(761.425781 0)"/>
     <use xlink:href="#DejaVuSans-Bold-20" transform="translate(820.947266 0)"/>
     <use xlink:href="#DejaVuSans-Bold-43" transform="translate(855.761719 0)"/>
     <use xlink:href="#DejaVuSans-Bold-6f" transform="translate(929.150391 0)"/>
     <use xlink:href="#DejaVuSans-Bold-6e" transform="translate(997.851562 0)"/>
     <use xlink:href="#DejaVuSans-Bold-76" transform="translate(1069.042969 0)"/>
     <use xlink:href="#DejaVuSans-Bold-65" transform="translate(1134.228516 0)"/>
     <use xlink:href="#DejaVuSans-Bold-72" transform="translate(1202.050781 0)"/>
     <use xlink:href="#DejaVuSans-Bold-67" transform="translate(1251.367188 0)"/>
     <use xlink:href="#DejaVuSans-Bold-65" transform="translate(1322.949219 0)"/>
     <use xlink:href="#DejaVuSans-Bold-6e" transform="translate(1390.771484 0)"/>
     <use xlink:href="#DejaVuSans-Bold-63" transform="translate(1461.962891 0)"/>
     <use xlink:href="#DejaVuSans-Bold-65" transform="translate(1521.240234 0)"/>
    </g>
   </g>
   <g id="legend_2">
    <g id="patch_17">
     <path d="M 1022.949375 93.070737 
L 1130.29625 93.070737 
Q 1132.29625 93.070737 1132.29625 91.070737 
L 1132.29625 62.714487 
Q 1132.29625 60.714487 1130.29625 60.714487 
L 1022.949375 60.714487 
Q 1020.949375 60.714487 1020.949375 62.714487 
L 1020.949375 91.070737 
Q 1020.949375 93.070737 1022.949375 93.070737 
z
" style="fill: #ffffff; opacity: 0.8; stroke: #cccccc; stroke-linejoin: miter"/>
    </g>
    <g id="line2d_65">
     <path d="M 1024.949375 68.812925 
L 1034.949375 68.812925 
L 1044.949375 68.812925 
" style="fill: none; stroke: #ff0000; stroke-opacity: 0.8; stroke-width: 3; stroke-linecap: square"/>
    </g>
    <g id="text_34">
     <!-- SGD Loss -->
     <g transform="translate(1052.949375 72.312925) scale(0.1 -0.1)">
      <use xlink:href="#DejaVuSans-53"/>
      <use xlink:href="#DejaVuSans-47" transform="translate(63.476562 0)"/>
      <use xlink:href="#DejaVuSans-44" transform="translate(140.966797 0)"/>
      <use xlink:href="#DejaVuSans-20" transform="translate(217.96875 0)"/>
      <use xlink:href="#DejaVuSans-4c" transform="translate(249.755859 0)"/>
      <use xlink:href="#DejaVuSans-6f" transform="translate(303.71875 0)"/>
      <use xlink:href="#DejaVuSans-73" transform="translate(364.900391 0)"/>
      <use xlink:href="#DejaVuSans-73" transform="translate(417 0)"/>
     </g>
    </g>
    <g id="line2d_66">
     <path d="M 1024.949375 83.49105 
L 1034.949375 83.49105 
L 1044.949375 83.49105 
" style="fill: none; stroke: #008000; stroke-opacity: 0.8; stroke-width: 3; stroke-linecap: square"/>
    </g>
    <g id="text_35">
     <!-- Meta-SGD Loss -->
     <g transform="translate(1052.949375 86.99105) scale(0.1 -0.1)">
      <use xlink:href="#DejaVuSans-4d"/>
      <use xlink:href="#DejaVuSans-65" transform="translate(86.279297 0)"/>
      <use xlink:href="#DejaVuSans-74" transform="translate(147.802734 0)"/>
      <use xlink:href="#DejaVuSans-61" transform="translate(187.011719 0)"/>
      <use xlink:href="#DejaVuSans-2d" transform="translate(248.291016 0)"/>
      <use xlink:href="#DejaVuSans-53" transform="translate(284.375 0)"/>
      <use xlink:href="#DejaVuSans-47" transform="translate(347.851562 0)"/>
      <use xlink:href="#DejaVuSans-44" transform="translate(425.341797 0)"/>
      <use xlink:href="#DejaVuSans-20" transform="translate(502.34375 0)"/>
      <use xlink:href="#DejaVuSans-4c" transform="translate(534.130859 0)"/>
      <use xlink:href="#DejaVuSans-6f" transform="translate(588.09375 0)"/>
      <use xlink:href="#DejaVuSans-73" transform="translate(649.275391 0)"/>
      <use xlink:href="#DejaVuSans-73" transform="translate(701.375 0)"/>
     </g>
    </g>
   </g>
  </g>
  <g id="text_36">
   <!-- Step Size Adaptation Impact on Concept Learning -->
   <g transform="translate(347.3375 19.3575) scale(0.16 -0.16)">
    <defs>
     <path id="DejaVuSans-Bold-49" d="M 588 4666 
L 1791 4666 
L 1791 0 
L 588 0 
L 588 4666 
z
" transform="scale(0.015625)"/>
    </defs>
    <use xlink:href="#DejaVuSans-Bold-53"/>
    <use xlink:href="#DejaVuSans-Bold-74" transform="translate(72.021484 0)"/>
    <use xlink:href="#DejaVuSans-Bold-65" transform="translate(119.824219 0)"/>
    <use xlink:href="#DejaVuSans-Bold-70" transform="translate(187.646484 0)"/>
    <use xlink:href="#DejaVuSans-Bold-20" transform="translate(259.228516 0)"/>
    <use xlink:href="#DejaVuSans-Bold-53" transform="translate(294.042969 0)"/>
    <use xlink:href="#DejaVuSans-Bold-69" transform="translate(366.064453 0)"/>
    <use xlink:href="#DejaVuSans-Bold-7a" transform="translate(400.341797 0)"/>
    <use xlink:href="#DejaVuSans-Bold-65" transform="translate(458.544922 0)"/>
    <use xlink:href="#DejaVuSans-Bold-20" transform="translate(526.367188 0)"/>
    <use xlink:href="#DejaVuSans-Bold-41" transform="translate(561.181641 0)"/>
    <use xlink:href="#DejaVuSans-Bold-64" transform="translate(638.574219 0)"/>
    <use xlink:href="#DejaVuSans-Bold-61" transform="translate(710.15625 0)"/>
    <use xlink:href="#DejaVuSans-Bold-70" transform="translate(777.636719 0)"/>
    <use xlink:href="#DejaVuSans-Bold-74" transform="translate(849.21875 0)"/>
    <use xlink:href="#DejaVuSans-Bold-61" transform="translate(897.021484 0)"/>
    <use xlink:href="#DejaVuSans-Bold-74" transform="translate(964.501953 0)"/>
    <use xlink:href="#DejaVuSans-Bold-69" transform="translate(1012.304688 0)"/>
    <use xlink:href="#DejaVuSans-Bold-6f" transform="translate(1046.582031 0)"/>
    <use xlink:href="#DejaVuSans-Bold-6e" transform="translate(1115.283203 0)"/>
    <use xlink:href="#DejaVuSans-Bold-20" transform="translate(1186.474609 0)"/>
    <use xlink:href="#DejaVuSans-Bold-49" transform="translate(1221.289062 0)"/>
    <use xlink:href="#DejaVuSans-Bold-6d" transform="translate(1258.496094 0)"/>
    <use xlink:href="#DejaVuSans-Bold-70" transform="translate(1362.695312 0)"/>
    <use xlink:href="#DejaVuSans-Bold-61" transform="translate(1434.277344 0)"/>
    <use xlink:href="#DejaVuSans-Bold-63" transform="translate(1501.757812 0)"/>
    <use xlink:href="#DejaVuSans-Bold-74" transform="translate(1561.035156 0)"/>
    <use xlink:href="#DejaVuSans-Bold-20" transform="translate(1608.837891 0)"/>
    <use xlink:href="#DejaVuSans-Bold-6f" transform="translate(1643.652344 0)"/>
    <use xlink:href="#DejaVuSans-Bold-6e" transform="translate(1712.353516 0)"/>
    <use xlink:href="#DejaVuSans-Bold-20" transform="translate(1783.544922 0)"/>
    <use xlink:href="#DejaVuSans-Bold-43" transform="translate(1818.359375 0)"/>
    <use xlink:href="#DejaVuSans-Bold-6f" transform="translate(1891.748047 0)"/>
    <use xlink:href="#DejaVuSans-Bold-6e" transform="translate(1960.449219 0)"/>
    <use xlink:href="#DejaVuSans-Bold-63" transform="translate(2031.640625 0)"/>
    <use xlink:href="#DejaVuSans-Bold-65" transform="translate(2090.917969 0)"/>
    <use xlink:href="#DejaVuSans-Bold-70" transform="translate(2158.740234 0)"/>
    <use xlink:href="#DejaVuSans-Bold-74" transform="translate(2230.322266 0)"/>
    <use xlink:href="#DejaVuSans-Bold-20" transform="translate(2278.125 0)"/>
    <use xlink:href="#DejaVuSans-Bold-4c" transform="translate(2312.939453 0)"/>
    <use xlink:href="#DejaVuSans-Bold-65" transform="translate(2376.660156 0)"/>
    <use xlink:href="#DejaVuSans-Bold-61" transform="translate(2444.482422 0)"/>
    <use xlink:href="#DejaVuSans-Bold-72" transform="translate(2511.962891 0)"/>
    <use xlink:href="#DejaVuSans-Bold-6e" transform="translate(2561.279297 0)"/>
    <use xlink:href="#DejaVuSans-Bold-69" transform="translate(2632.470703 0)"/>
    <use xlink:href="#DejaVuSans-Bold-6e" transform="translate(2666.748047 0)"/>
    <use xlink:href="#DejaVuSans-Bold-67" transform="translate(2737.939453 0)"/>
   </g>
  </g>
 </g>
 <defs>
  <clipPath id="p8b4cdcb7bf">
   <rect x="56.50625" y="55.714487" width="512.508973" height="329.860719"/>
  </clipPath>
  <clipPath id="pfe9adf4dd2">
   <rect x="624.787277" y="55.714487" width="512.508973" height="329.860719"/>
  </clipPath>
 </defs>
</svg>
